{
    "accessors" : [
        {
            "bufferView" : 0, 
            "componentType" : 5123, 
            "count" : 13722, 
            "max" : [
                7587
            ], 
            "min" : [
                0
            ], 
            "type" : "SCALAR"
        }, 
        {
            "bufferView" : 1, 
            "componentType" : 5126, 
            "count" : 7588, 
            "max" : [
                1.0, 
                4.409365653991699, 
                1.0000001192092896
            ], 
            "min" : [
                -0.9999999403953552, 
                -1.4156103134155273e-07, 
                -1.0
            ], 
            "type" : "VEC3"
        }, 
        {
            "bufferView" : 2, 
            "componentType" : 5126, 
            "count" : 7588, 
            "max" : [
                0.9987879991531372, 
                0.9994724988937378, 
                0.9998413324356079
            ], 
            "min" : [
                -0.9982942938804626, 
                -0.9992311000823975, 
                -0.9998411536216736
            ], 
            "type" : "VEC3"
        }, 
        {
            "bufferView" : 3, 
            "componentType" : 5126, 
            "count" : 7588, 
            "max" : [
                1.0, 
                1.0
            ], 
            "min" : [
                0.0, 
                0.0
            ], 
            "type" : "VEC2"
        }, 
        {
            "bufferView" : 4, 
            "componentType" : 5123, 
            "count" : 756, 
            "max" : [
                271
            ], 
            "min" : [
                0
            ], 
            "type" : "SCALAR"
        }, 
        {
            "bufferView" : 5, 
            "componentType" : 5126, 
            "count" : 272, 
            "max" : [
                1.0, 
                0.40000006556510925, 
                1.0000001192092896
            ], 
            "min" : [
                -0.9999999403953552, 
                -1.4156103134155273e-07, 
                -1.0
            ], 
            "type" : "VEC3"
        }, 
        {
            "bufferView" : 6, 
            "componentType" : 5126, 
            "count" : 272, 
            "max" : [
                0.7278664708137512, 
                0.729819655418396, 
                0.7278664708137512
            ], 
            "min" : [
                -0.7278664708137512, 
                -0.6856898665428162, 
                -0.7278664708137512
            ], 
            "type" : "VEC3"
        }, 
        {
            "bufferView" : 7, 
            "componentType" : 5126, 
            "count" : 272, 
            "max" : [
                1.0, 
                1.0
            ], 
            "min" : [
                0.0, 
                5.960464477539063e-08
            ], 
            "type" : "VEC2"
        }, 
        {
            "bufferView" : 8, 
            "componentType" : 5123, 
            "count" : 2592, 
            "max" : [
                1193
            ], 
            "min" : [
                0
            ], 
            "type" : "SCALAR"
        }, 
        {
            "bufferView" : 9, 
            "componentType" : 5126, 
            "count" : 1194, 
            "max" : [
                1.0, 
                1.8081873655319214, 
                1.0000001192092896
            ], 
            "min" : [
                -0.9999999403953552, 
                -1.4156103134155273e-07, 
                -1.0
            ], 
            "type" : "VEC3"
        }, 
        {
            "bufferView" : 10, 
            "componentType" : 5126, 
            "count" : 1194, 
            "max" : [
                1.0, 
                0.9884029626846313, 
                0.9709463715553284
            ], 
            "min" : [
                -0.9999999403953552, 
                -0.7660468220710754, 
                -0.7660437226295471
            ], 
            "type" : "VEC3"
        }, 
        {
            "bufferView" : 11, 
            "componentType" : 5126, 
            "count" : 1194, 
            "max" : [
                1.0, 
                1.0
            ], 
            "min" : [
                0.0, 
                0.0
            ], 
            "type" : "VEC2"
        }, 
        {
            "bufferView" : 12, 
            "componentType" : 5123, 
            "count" : 1386, 
            "max" : [
                689
            ], 
            "min" : [
                0
            ], 
            "type" : "SCALAR"
        }, 
        {
            "bufferView" : 13, 
            "componentType" : 5126, 
            "count" : 690, 
            "max" : [
                1.0, 
                2.0722036361694336, 
                1.0000001192092896
            ], 
            "min" : [
                -0.9999999403953552, 
                -1.4156103134155273e-07, 
                -1.0
            ], 
            "type" : "VEC3"
        }, 
        {
            "bufferView" : 14, 
            "componentType" : 5126, 
            "count" : 690, 
            "max" : [
                1.0, 
                0.9938963055610657, 
                0.9914112687110901
            ], 
            "min" : [
                -1.0, 
                -0.9946639537811279, 
                -0.9637906551361084
            ], 
            "type" : "VEC3"
        }, 
        {
            "bufferView" : 15, 
            "componentType" : 5126, 
            "count" : 690, 
            "max" : [
                1.0, 
                1.0
            ], 
            "min" : [
                0.0, 
                0.0
            ], 
            "type" : "VEC2"
        }, 
        {
            "bufferView" : 16, 
            "componentType" : 5121, 
            "count" : 768, 
            "max" : [
                153
            ], 
            "min" : [
                0
            ], 
            "type" : "SCALAR"
        }, 
        {
            "bufferView" : 17, 
            "componentType" : 5126, 
            "count" : 154, 
            "max" : [
                1.2600001096725464, 
                0.21000002324581146, 
                1.260000228881836
            ], 
            "min" : [
                -1.2599999904632568, 
                -0.21000003814697266, 
                -1.2600001096725464
            ], 
            "type" : "VEC3"
        }, 
        {
            "bufferView" : 18, 
            "componentType" : 5126, 
            "count" : 154, 
            "max" : [
                0.7278664708137512, 
                0.729819655418396, 
                0.7278664708137512
            ], 
            "min" : [
                -0.7278664708137512, 
                -0.729819655418396, 
                -0.7278664708137512
            ], 
            "type" : "VEC3"
        }, 
        {
            "bufferView" : 19, 
            "componentType" : 5126, 
            "count" : 154, 
            "max" : [
                1.0, 
                0.04904951900243759, 
                0.904099702835083, 
                1.0
            ], 
            "min" : [
                0.4244970977306366, 
                -0.04904890060424805, 
                -0.9040998220443726, 
                1.0
            ], 
            "type" : "VEC4"
        }, 
        {
            "bufferView" : 20, 
            "componentType" : 5126, 
            "count" : 154, 
            "max" : [
                0.999962329864502, 
                1.0
            ], 
            "min" : [
                0.0, 
                -0.0042896270751953125
            ], 
            "type" : "VEC2"
        }, 
        {
            "bufferView" : 21, 
            "componentType" : 5123, 
            "count" : 960, 
            "max" : [
                391
            ], 
            "min" : [
                0
            ], 
            "type" : "SCALAR"
        }, 
        {
            "bufferView" : 22, 
            "componentType" : 5126, 
            "count" : 392, 
            "max" : [
                1.0, 
                2.180673837661743, 
                1.0000001192092896
            ], 
            "min" : [
                -0.9999999403953552, 
                -1.4156103134155273e-07, 
                -1.0
            ], 
            "type" : "VEC3"
        }, 
        {
            "bufferView" : 23, 
            "componentType" : 5126, 
            "count" : 392, 
            "max" : [
                0.7278664708137512, 
                0.9062776565551758, 
                0.766075611114502
            ], 
            "min" : [
                -0.7278664708137512, 
                -0.9063081741333008, 
                -0.766380786895752
            ], 
            "type" : "VEC3"
        }, 
        {
            "bufferView" : 24, 
            "componentType" : 5126, 
            "count" : 392, 
            "max" : [
                1.0, 
                1.0
            ], 
            "min" : [
                0.0, 
                0.0
            ], 
            "type" : "VEC2"
        }
    ], 
    "asset" : {
        "generator" : "Khronos Blender glTF 2.0 exporter", 
        "version" : "2.0"
    }, 
    "bufferViews" : [
        {
            "buffer" : 0, 
            "byteLength" : 27444, 
            "byteOffset" : 0, 
            "target" : 34963
        }, 
        {
            "buffer" : 0, 
            "byteLength" : 91056, 
            "byteOffset" : 27444, 
            "target" : 34962
        }, 
        {
            "buffer" : 0, 
            "byteLength" : 91056, 
            "byteOffset" : 118500, 
            "target" : 34962
        }, 
        {
            "buffer" : 0, 
            "byteLength" : 60704, 
            "byteOffset" : 209556, 
            "target" : 34962
        }, 
        {
            "buffer" : 0, 
            "byteLength" : 1512, 
            "byteOffset" : 270260, 
            "target" : 34963
        }, 
        {
            "buffer" : 0, 
            "byteLength" : 3264, 
            "byteOffset" : 271772, 
            "target" : 34962
        }, 
        {
            "buffer" : 0, 
            "byteLength" : 3264, 
            "byteOffset" : 275036, 
            "target" : 34962
        }, 
        {
            "buffer" : 0, 
            "byteLength" : 2176, 
            "byteOffset" : 278300, 
            "target" : 34962
        }, 
        {
            "buffer" : 0, 
            "byteLength" : 5184, 
            "byteOffset" : 280476, 
            "target" : 34963
        }, 
        {
            "buffer" : 0, 
            "byteLength" : 14328, 
            "byteOffset" : 285660, 
            "target" : 34962
        }, 
        {
            "buffer" : 0, 
            "byteLength" : 14328, 
            "byteOffset" : 299988, 
            "target" : 34962
        }, 
        {
            "buffer" : 0, 
            "byteLength" : 9552, 
            "byteOffset" : 314316, 
            "target" : 34962
        }, 
        {
            "buffer" : 0, 
            "byteLength" : 2772, 
            "byteOffset" : 323868, 
            "target" : 34963
        }, 
        {
            "buffer" : 0, 
            "byteLength" : 8280, 
            "byteOffset" : 326640, 
            "target" : 34962
        }, 
        {
            "buffer" : 0, 
            "byteLength" : 8280, 
            "byteOffset" : 334920, 
            "target" : 34962
        }, 
        {
            "buffer" : 0, 
            "byteLength" : 5520, 
            "byteOffset" : 343200, 
            "target" : 34962
        }, 
        {
            "buffer" : 0, 
            "byteLength" : 768, 
            "byteOffset" : 348720, 
            "target" : 34963
        }, 
        {
            "buffer" : 0, 
            "byteLength" : 1848, 
            "byteOffset" : 349488, 
            "target" : 34962
        }, 
        {
            "buffer" : 0, 
            "byteLength" : 1848, 
            "byteOffset" : 351336, 
            "target" : 34962
        }, 
        {
            "buffer" : 0, 
            "byteLength" : 2464, 
            "byteOffset" : 353184, 
            "target" : 34962
        }, 
        {
            "buffer" : 0, 
            "byteLength" : 1232, 
            "byteOffset" : 355648, 
            "target" : 34962
        }, 
        {
            "buffer" : 0, 
            "byteLength" : 1920, 
            "byteOffset" : 356880, 
            "target" : 34963
        }, 
        {
            "buffer" : 0, 
            "byteLength" : 4704, 
            "byteOffset" : 358800, 
            "target" : 34962
        }, 
        {
            "buffer" : 0, 
            "byteLength" : 4704, 
            "byteOffset" : 363504, 
            "target" : 34962
        }, 
        {
            "buffer" : 0, 
            "byteLength" : 3136, 
            "byteOffset" : 368208, 
            "target" : 34962
        }
    ], 
    "buffers" : [
        {
            "byteLength" : 371344, 
            "uri" : "buttons.bin"
        }
    ], 
    "meshes" : [
        {
            "name" : "motion", 
            "primitives" : [
                {
                    "attributes" : {
                        "NORMAL" : 2, 
                        "POSITION" : 1, 
                        "TEXCOORD_0" : 3
                    }, 
                    "indices" : 0
                }
            ]
        }, 
        {
            "name" : "socleinside", 
            "primitives" : [
                {
                    "attributes" : {
                        "NORMAL" : 6, 
                        "POSITION" : 5, 
                        "TEXCOORD_0" : 7
                    }, 
                    "indices" : 4
                }
            ]
        }, 
        {
            "name" : "keyboard", 
            "primitives" : [
                {
                    "attributes" : {
                        "NORMAL" : 10, 
                        "POSITION" : 9, 
                        "TEXCOORD_0" : 11
                    }, 
                    "indices" : 8
                }
            ]
        }, 
        {
            "name" : "mouse", 
            "primitives" : [
                {
                    "attributes" : {
                        "NORMAL" : 14, 
                        "POSITION" : 13, 
                        "TEXCOORD_0" : 15
                    }, 
                    "indices" : 12
                }
            ]
        }, 
        {
            "name" : "socleoutside", 
            "primitives" : [
                {
                    "attributes" : {
                        "NORMAL" : 18, 
                        "POSITION" : 17, 
                        "TANGENT" : 19, 
                        "TEXCOORD_0" : 20
                    }, 
                    "indices" : 16
                }
            ]
        }, 
        {
            "name" : "sound", 
            "primitives" : [
                {
                    "attributes" : {
                        "NORMAL" : 23, 
                        "POSITION" : 22, 
                        "TEXCOORD_0" : 24
                    }, 
                    "indices" : 21
                }
            ]
        }
    ], 
    "nodes" : [
        {
            "mesh" : 2, 
            "name" : "keyboard", 
            "translation" : [
                -3.0, 
                0.0, 
                -0.0
            ]
        }, 
        {
            "mesh" : 0, 
            "name" : "motion", 
            "translation" : [
                3.0, 
                0.0, 
                -0.0
            ]
        }, 
        {
            "mesh" : 3, 
            "name" : "mouse", 
            "translation" : [
                -6.0, 
                0.0, 
                -0.0
            ]
        }, 
        {
            "mesh" : 1, 
            "name" : "socleinside"
        }, 
        {
            "mesh" : 4, 
            "name" : "socleoutside"
        }, 
        {
            "mesh" : 5, 
            "name" : "sound", 
            "translation" : [
                6.0, 
                0.0, 
                -0.0
            ]
        }
    ], 
    "scene" : 0, 
    "scenes" : [
        {
            "name" : "Scene", 
            "nodes" : [
                3, 
                4, 
                5, 
                1, 
                2, 
                0
            ]
        }
    ]
}
