{
    "accessors" : [
        {
            "bufferView" : 0, 
            "componentType" : 5123, 
            "count" : 1386, 
            "max" : [
                689
            ], 
            "min" : [
                0
            ], 
            "type" : "SCALAR"
        }, 
        {
            "bufferView" : 1, 
            "componentType" : 5126, 
            "count" : 690, 
            "max" : [
                1.0, 
                2.4238698482513428, 
                1.135647177696228
            ], 
            "min" : [
                -0.9999999403953552, 
                -1.4156103134155273e-07, 
                -1.109122633934021
            ], 
            "type" : "VEC3"
        }, 
        {
            "bufferView" : 2, 
            "componentType" : 5126, 
            "count" : 690, 
            "max" : [
                1.0, 
                0.9938963055610657, 
                0.9914112091064453
            ], 
            "min" : [
                -1.0, 
                -0.9946637749671936, 
                -0.9637906551361084
            ], 
            "type" : "VEC3"
        }, 
        {
            "bufferView" : 3, 
            "componentType" : 5126, 
            "count" : 690, 
            "max" : [
                1.0, 
                1.0
            ], 
            "min" : [
                0.0, 
                0.0
            ], 
            "type" : "VEC2"
        }
    ], 
    "asset" : {
        "generator" : "Khronos Blender glTF 2.0 exporter", 
        "version" : "2.0"
    }, 
    "bufferViews" : [
        {
            "buffer" : 0, 
            "byteLength" : 2772, 
            "byteOffset" : 0, 
            "target" : 34963
        }, 
        {
            "buffer" : 0, 
            "byteLength" : 8280, 
            "byteOffset" : 2772, 
            "target" : 34962
        }, 
        {
            "buffer" : 0, 
            "byteLength" : 8280, 
            "byteOffset" : 11052, 
            "target" : 34962
        }, 
        {
            "buffer" : 0, 
            "byteLength" : 5520, 
            "byteOffset" : 19332, 
            "target" : 34962
        }
    ], 
    "buffers" : [
        {
            "byteLength" : 24852, 
            "uri" : "buttons.bin"
        }
    ], 
    "meshes" : [
        {
            "name" : "ComputerMouse_mesh", 
            "primitives" : [
                {
                    "attributes" : {
                        "NORMAL" : 2, 
                        "POSITION" : 1, 
                        "TEXCOORD_0" : 3
                    }, 
                    "indices" : 0
                }
            ]
        }
    ], 
    "nodes" : [
        {
            "mesh" : 0, 
            "name" : "ComputerMouse_mesh"
        }
    ], 
    "scene" : 0, 
    "scenes" : [
        {
            "name" : "Scene", 
            "nodes" : [
                0
            ]
        }
    ]
}
