{
    "accessors" : [
        {
            "bufferView" : 0, 
            "componentType" : 5121, 
            "count" : 564, 
            "max" : [
                111
            ], 
            "min" : [
                0
            ], 
            "type" : "SCALAR"
        }, 
        {
            "bufferView" : 1, 
            "componentType" : 5126, 
            "count" : 112, 
            "max" : [
                4.0, 
                1.0, 
                1.0
            ], 
            "min" : [
                -4.0, 
                -1.0, 
                -1.0
            ], 
            "type" : "VEC3"
        }, 
        {
            "bufferView" : 2, 
            "componentType" : 5126, 
            "count" : 112, 
            "max" : [
                0.7279275059700012, 
                1.0, 
                0.7279275059700012
            ], 
            "min" : [
                -0.7279275059700012, 
                -1.0, 
                -0.7279275059700012
            ], 
            "type" : "VEC3"
        }, 
        {
            "bufferView" : 3, 
            "componentType" : 5126, 
            "count" : 112, 
            "max" : [
                1.0, 
                0.7207747101783752, 
                0.3287830352783203, 
                1.0
            ], 
            "min" : [
                0.685686469078064, 
                -0.7207749485969543, 
                -0.3287830352783203, 
                1.0
            ], 
            "type" : "VEC4"
        }, 
        {
            "bufferView" : 4, 
            "componentType" : 5126, 
            "count" : 112, 
            "max" : [
                1.0, 
                1.0
            ], 
            "min" : [
                0.0, 
                0.0
            ], 
            "type" : "VEC2"
        }
    ], 
    "asset" : {
        "generator" : "Khronos Blender glTF 2.0 exporter", 
        "version" : "2.0"
    }, 
    "bufferViews" : [
        {
            "buffer" : 0, 
            "byteLength" : 564, 
            "byteOffset" : 0, 
            "target" : 34963
        }, 
        {
            "buffer" : 0, 
            "byteLength" : 1344, 
            "byteOffset" : 564, 
            "target" : 34962
        }, 
        {
            "buffer" : 0, 
            "byteLength" : 1344, 
            "byteOffset" : 1908, 
            "target" : 34962
        }, 
        {
            "buffer" : 0, 
            "byteLength" : 1792, 
            "byteOffset" : 3252, 
            "target" : 34962
        }, 
        {
            "buffer" : 0, 
            "byteLength" : 896, 
            "byteOffset" : 5044, 
            "target" : 34962
        }
    ], 
    "buffers" : [
        {
            "byteLength" : 5940, 
            "uri" : "button.bin"
        }
    ], 
    "meshes" : [
        {
            "name" : "Cube.003", 
            "primitives" : [
                {
                    "attributes" : {
                        "NORMAL" : 2, 
                        "POSITION" : 1, 
                        "TANGENT" : 3, 
                        "TEXCOORD_0" : 4
                    }, 
                    "indices" : 0
                }
            ]
        }
    ], 
    "nodes" : [
        {
            "mesh" : 0, 
            "name" : "Cube.001"
        }
    ], 
    "scene" : 0, 
    "scenes" : [
        {
            "name" : "Scene", 
            "nodes" : [
                0
            ]
        }
    ]
}
