{
    "accessors" : [
        {
            "bufferView" : 0, 
            "componentType" : 5123, 
            "count" : 960, 
            "max" : [
                391
            ], 
            "min" : [
                0
            ], 
            "type" : "SCALAR"
        }, 
        {
            "bufferView" : 1, 
            "componentType" : 5126, 
            "count" : 392, 
            "max" : [
                1.0, 
                2.611051082611084, 
                1.0000001192092896
            ], 
            "min" : [
                -0.9999999403953552, 
                -1.4156103134155273e-07, 
                -1.0
            ], 
            "type" : "VEC3"
        }, 
        {
            "bufferView" : 2, 
            "componentType" : 5126, 
            "count" : 392, 
            "max" : [
                0.7278664708137512, 
                1.0, 
                0.7278664708137512
            ], 
            "min" : [
                -0.7278664708137512, 
                -1.0, 
                -0.7278664708137512
            ], 
            "type" : "VEC3"
        }, 
        {
            "bufferView" : 3, 
            "componentType" : 5126, 
            "count" : 392, 
            "max" : [
                1.0, 
                1.0
            ], 
            "min" : [
                0.0, 
                0.0
            ], 
            "type" : "VEC2"
        }, 
        {
            "bufferView" : 4, 
            "componentType" : 5123, 
            "count" : 13722, 
            "max" : [
                7587
            ], 
            "min" : [
                0
            ], 
            "type" : "SCALAR"
        }, 
        {
            "bufferView" : 5, 
            "componentType" : 5126, 
            "count" : 7588, 
            "max" : [
                1.0, 
                4.409365653991699, 
                1.0000001192092896
            ], 
            "min" : [
                -0.9999999403953552, 
                -1.4156103134155273e-07, 
                -1.0
            ], 
            "type" : "VEC3"
        }, 
        {
            "bufferView" : 6, 
            "componentType" : 5126, 
            "count" : 7588, 
            "max" : [
                0.9987879991531372, 
                0.9994724988937378, 
                0.9998413324356079
            ], 
            "min" : [
                -0.9982942938804626, 
                -0.9992311000823975, 
                -0.9998411536216736
            ], 
            "type" : "VEC3"
        }, 
        {
            "bufferView" : 7, 
            "componentType" : 5126, 
            "count" : 7588, 
            "max" : [
                1.0, 
                1.0
            ], 
            "min" : [
                0.0, 
                0.0
            ], 
            "type" : "VEC2"
        }, 
        {
            "bufferView" : 8, 
            "componentType" : 5123, 
            "count" : 1386, 
            "max" : [
                689
            ], 
            "min" : [
                0
            ], 
            "type" : "SCALAR"
        }, 
        {
            "bufferView" : 9, 
            "componentType" : 5126, 
            "count" : 690, 
            "max" : [
                1.0, 
                2.4238698482513428, 
                1.135647177696228
            ], 
            "min" : [
                -0.9999999403953552, 
                -1.4156103134155273e-07, 
                -1.109122633934021
            ], 
            "type" : "VEC3"
        }, 
        {
            "bufferView" : 10, 
            "componentType" : 5126, 
            "count" : 690, 
            "max" : [
                1.0, 
                0.9938963055610657, 
                0.9914112091064453
            ], 
            "min" : [
                -1.0, 
                -0.9946637749671936, 
                -0.9637906551361084
            ], 
            "type" : "VEC3"
        }, 
        {
            "bufferView" : 11, 
            "componentType" : 5126, 
            "count" : 690, 
            "max" : [
                1.0, 
                1.0
            ], 
            "min" : [
                0.0, 
                0.0
            ], 
            "type" : "VEC2"
        }, 
        {
            "bufferView" : 12, 
            "componentType" : 5123, 
            "count" : 2592, 
            "max" : [
                1193
            ], 
            "min" : [
                0
            ], 
            "type" : "SCALAR"
        }, 
        {
            "bufferView" : 13, 
            "componentType" : 5126, 
            "count" : 1194, 
            "max" : [
                1.0, 
                1.8081873655319214, 
                1.0000001192092896
            ], 
            "min" : [
                -0.9999999403953552, 
                -1.4156103134155273e-07, 
                -1.0
            ], 
            "type" : "VEC3"
        }, 
        {
            "bufferView" : 14, 
            "componentType" : 5126, 
            "count" : 1194, 
            "max" : [
                0.9999999403953552, 
                0.9884029626846313, 
                0.9709463715553284
            ], 
            "min" : [
                -1.0, 
                -0.7660468220710754, 
                -0.7660436034202576
            ], 
            "type" : "VEC3"
        }, 
        {
            "bufferView" : 15, 
            "componentType" : 5126, 
            "count" : 1194, 
            "max" : [
                1.0, 
                1.0
            ], 
            "min" : [
                0.0, 
                0.0
            ], 
            "type" : "VEC2"
        }
    ], 
    "asset" : {
        "generator" : "Khronos Blender glTF 2.0 exporter", 
        "version" : "2.0"
    }, 
    "bufferViews" : [
        {
            "buffer" : 0, 
            "byteLength" : 1920, 
            "byteOffset" : 0, 
            "target" : 34963
        }, 
        {
            "buffer" : 0, 
            "byteLength" : 4704, 
            "byteOffset" : 1920, 
            "target" : 34962
        }, 
        {
            "buffer" : 0, 
            "byteLength" : 4704, 
            "byteOffset" : 6624, 
            "target" : 34962
        }, 
        {
            "buffer" : 0, 
            "byteLength" : 3136, 
            "byteOffset" : 11328, 
            "target" : 34962
        }, 
        {
            "buffer" : 0, 
            "byteLength" : 27444, 
            "byteOffset" : 14464, 
            "target" : 34963
        }, 
        {
            "buffer" : 0, 
            "byteLength" : 91056, 
            "byteOffset" : 41908, 
            "target" : 34962
        }, 
        {
            "buffer" : 0, 
            "byteLength" : 91056, 
            "byteOffset" : 132964, 
            "target" : 34962
        }, 
        {
            "buffer" : 0, 
            "byteLength" : 60704, 
            "byteOffset" : 224020, 
            "target" : 34962
        }, 
        {
            "buffer" : 0, 
            "byteLength" : 2772, 
            "byteOffset" : 284724, 
            "target" : 34963
        }, 
        {
            "buffer" : 0, 
            "byteLength" : 8280, 
            "byteOffset" : 287496, 
            "target" : 34962
        }, 
        {
            "buffer" : 0, 
            "byteLength" : 8280, 
            "byteOffset" : 295776, 
            "target" : 34962
        }, 
        {
            "buffer" : 0, 
            "byteLength" : 5520, 
            "byteOffset" : 304056, 
            "target" : 34962
        }, 
        {
            "buffer" : 0, 
            "byteLength" : 5184, 
            "byteOffset" : 309576, 
            "target" : 34963
        }, 
        {
            "buffer" : 0, 
            "byteLength" : 14328, 
            "byteOffset" : 314760, 
            "target" : 34962
        }, 
        {
            "buffer" : 0, 
            "byteLength" : 14328, 
            "byteOffset" : 329088, 
            "target" : 34962
        }, 
        {
            "buffer" : 0, 
            "byteLength" : 9552, 
            "byteOffset" : 343416, 
            "target" : 34962
        }
    ], 
    "buffers" : [
        {
            "byteLength" : 352968, 
            "uri" : "buttons.bin"
        }
    ], 
    "meshes" : [
        {
            "name" : "sound", 
            "primitives" : [
                {
                    "attributes" : {
                        "NORMAL" : 2, 
                        "POSITION" : 1, 
                        "TEXCOORD_0" : 3
                    }, 
                    "indices" : 0
                }
            ]
        }, 
        {
            "name" : "motion", 
            "primitives" : [
                {
                    "attributes" : {
                        "NORMAL" : 6, 
                        "POSITION" : 5, 
                        "TEXCOORD_0" : 7
                    }, 
                    "indices" : 4
                }
            ]
        }, 
        {
            "name" : "mouse", 
            "primitives" : [
                {
                    "attributes" : {
                        "NORMAL" : 10, 
                        "POSITION" : 9, 
                        "TEXCOORD_0" : 11
                    }, 
                    "indices" : 8
                }
            ]
        }, 
        {
            "name" : "keyboard", 
            "primitives" : [
                {
                    "attributes" : {
                        "NORMAL" : 14, 
                        "POSITION" : 13, 
                        "TEXCOORD_0" : 15
                    }, 
                    "indices" : 12
                }
            ]
        }
    ], 
    "nodes" : [
        {
            "mesh" : 3, 
            "name" : "keyboard", 
            "translation" : [
                -1.5, 
                0.0, 
                -0.0
            ]
        }, 
        {
            "mesh" : 1, 
            "name" : "motion", 
            "translation" : [
                1.5, 
                0.0, 
                -0.0
            ]
        }, 
        {
            "mesh" : 2, 
            "name" : "mouse", 
            "translation" : [
                -4.5, 
                0.0, 
                -0.0
            ]
        }, 
        {
            "mesh" : 0, 
            "name" : "sound", 
            "translation" : [
                4.5, 
                0.0, 
                -0.0
            ]
        }
    ], 
    "scene" : 0, 
    "scenes" : [
        {
            "name" : "Scene", 
            "nodes" : [
                3, 
                1, 
                2, 
                0
            ]
        }
    ]
}
