{
    "accessors" : [
        {
            "bufferView" : 0, 
            "componentType" : 5123, 
            "count" : 1386, 
            "max" : [
                689
            ], 
            "min" : [
                0
            ], 
            "type" : "SCALAR"
        }, 
        {
            "bufferView" : 1, 
            "componentType" : 5126, 
            "count" : 690, 
            "max" : [
                1.0, 
                2.4238698482513428, 
                1.135647177696228
            ], 
            "min" : [
                -0.9999999403953552, 
                -1.4156103134155273e-07, 
                -1.109122633934021
            ], 
            "type" : "VEC3"
        }, 
        {
            "bufferView" : 2, 
            "componentType" : 5126, 
            "count" : 690, 
            "max" : [
                1.0, 
                0.9938963055610657, 
                0.9914112091064453
            ], 
            "min" : [
                -1.0, 
                -0.9946637749671936, 
                -0.9637906551361084
            ], 
            "type" : "VEC3"
        }, 
        {
            "bufferView" : 3, 
            "componentType" : 5126, 
            "count" : 690, 
            "max" : [
                1.0, 
                1.0
            ], 
            "min" : [
                0.0, 
                0.0
            ], 
            "type" : "VEC2"
        }, 
        {
            "bufferView" : 4, 
            "componentType" : 5123, 
            "count" : 1368, 
            "max" : [
                457
            ], 
            "min" : [
                0
            ], 
            "type" : "SCALAR"
        }, 
        {
            "bufferView" : 5, 
            "componentType" : 5126, 
            "count" : 458, 
            "max" : [
                1.0, 
                1.8081873655319214, 
                1.0000001192092896
            ], 
            "min" : [
                -0.9999999403953552, 
                -1.4156103134155273e-07, 
                -1.0
            ], 
            "type" : "VEC3"
        }, 
        {
            "bufferView" : 6, 
            "componentType" : 5126, 
            "count" : 458, 
            "max" : [
                0.8753318786621094, 
                0.9884029626846313, 
                0.9709463715553284
            ], 
            "min" : [
                -0.8764610886573792, 
                -0.6856898665428162, 
                -0.7278664708137512
            ], 
            "type" : "VEC3"
        }, 
        {
            "bufferView" : 7, 
            "componentType" : 5126, 
            "count" : 458, 
            "max" : [
                1.0, 
                1.0
            ], 
            "min" : [
                0.0, 
                0.0
            ], 
            "type" : "VEC2"
        }, 
        {
            "bufferView" : 8, 
            "componentType" : 5123, 
            "count" : 1368, 
            "max" : [
                457
            ], 
            "min" : [
                0
            ], 
            "type" : "SCALAR"
        }, 
        {
            "bufferView" : 9, 
            "componentType" : 5126, 
            "count" : 458, 
            "max" : [
                1.0, 
                1.8081873655319214, 
                1.0000001192092896
            ], 
            "min" : [
                -0.9999999403953552, 
                -1.4156103134155273e-07, 
                -1.0
            ], 
            "type" : "VEC3"
        }, 
        {
            "bufferView" : 10, 
            "componentType" : 5126, 
            "count" : 458, 
            "max" : [
                0.8753318786621094, 
                0.9884029626846313, 
                0.9709463715553284
            ], 
            "min" : [
                -0.8764610886573792, 
                -0.6856898665428162, 
                -0.7278664708137512
            ], 
            "type" : "VEC3"
        }, 
        {
            "bufferView" : 11, 
            "componentType" : 5126, 
            "count" : 458, 
            "max" : [
                1.0, 
                1.0
            ], 
            "min" : [
                0.0, 
                0.0
            ], 
            "type" : "VEC2"
        }, 
        {
            "bufferView" : 12, 
            "componentType" : 5123, 
            "count" : 2562, 
            "max" : [
                1163
            ], 
            "min" : [
                0
            ], 
            "type" : "SCALAR"
        }, 
        {
            "bufferView" : 13, 
            "componentType" : 5126, 
            "count" : 1164, 
            "max" : [
                1.0, 
                1.8081873655319214, 
                1.0000001192092896
            ], 
            "min" : [
                -0.9999999403953552, 
                -1.4156103134155273e-07, 
                -1.0
            ], 
            "type" : "VEC3"
        }, 
        {
            "bufferView" : 14, 
            "componentType" : 5126, 
            "count" : 1164, 
            "max" : [
                0.9999999403953552, 
                0.9884029626846313, 
                0.9709463715553284
            ], 
            "min" : [
                -1.0, 
                -0.7660452127456665, 
                -0.7660436034202576
            ], 
            "type" : "VEC3"
        }, 
        {
            "bufferView" : 15, 
            "componentType" : 5126, 
            "count" : 1164, 
            "max" : [
                1.0, 
                1.0
            ], 
            "min" : [
                0.0, 
                0.0
            ], 
            "type" : "VEC2"
        }
    ], 
    "asset" : {
        "generator" : "Khronos Blender glTF 2.0 exporter", 
        "version" : "2.0"
    }, 
    "bufferViews" : [
        {
            "buffer" : 0, 
            "byteLength" : 2772, 
            "byteOffset" : 0, 
            "target" : 34963
        }, 
        {
            "buffer" : 0, 
            "byteLength" : 8280, 
            "byteOffset" : 2772, 
            "target" : 34962
        }, 
        {
            "buffer" : 0, 
            "byteLength" : 8280, 
            "byteOffset" : 11052, 
            "target" : 34962
        }, 
        {
            "buffer" : 0, 
            "byteLength" : 5520, 
            "byteOffset" : 19332, 
            "target" : 34962
        }, 
        {
            "buffer" : 0, 
            "byteLength" : 2736, 
            "byteOffset" : 24852, 
            "target" : 34963
        }, 
        {
            "buffer" : 0, 
            "byteLength" : 5496, 
            "byteOffset" : 27588, 
            "target" : 34962
        }, 
        {
            "buffer" : 0, 
            "byteLength" : 5496, 
            "byteOffset" : 33084, 
            "target" : 34962
        }, 
        {
            "buffer" : 0, 
            "byteLength" : 3664, 
            "byteOffset" : 38580, 
            "target" : 34962
        }, 
        {
            "buffer" : 0, 
            "byteLength" : 2736, 
            "byteOffset" : 42244, 
            "target" : 34963
        }, 
        {
            "buffer" : 0, 
            "byteLength" : 5496, 
            "byteOffset" : 44980, 
            "target" : 34962
        }, 
        {
            "buffer" : 0, 
            "byteLength" : 5496, 
            "byteOffset" : 50476, 
            "target" : 34962
        }, 
        {
            "buffer" : 0, 
            "byteLength" : 3664, 
            "byteOffset" : 55972, 
            "target" : 34962
        }, 
        {
            "buffer" : 0, 
            "byteLength" : 5124, 
            "byteOffset" : 59636, 
            "target" : 34963
        }, 
        {
            "buffer" : 0, 
            "byteLength" : 13968, 
            "byteOffset" : 64760, 
            "target" : 34962
        }, 
        {
            "buffer" : 0, 
            "byteLength" : 13968, 
            "byteOffset" : 78728, 
            "target" : 34962
        }, 
        {
            "buffer" : 0, 
            "byteLength" : 9312, 
            "byteOffset" : 92696, 
            "target" : 34962
        }
    ], 
    "buffers" : [
        {
            "byteLength" : 102008, 
            "uri" : "buttons.bin"
        }
    ], 
    "meshes" : [
        {
            "name" : "mouse", 
            "primitives" : [
                {
                    "attributes" : {
                        "NORMAL" : 2, 
                        "POSITION" : 1, 
                        "TEXCOORD_0" : 3
                    }, 
                    "indices" : 0
                }
            ]
        }, 
        {
            "name" : "sound", 
            "primitives" : [
                {
                    "attributes" : {
                        "NORMAL" : 6, 
                        "POSITION" : 5, 
                        "TEXCOORD_0" : 7
                    }, 
                    "indices" : 4
                }
            ]
        }, 
        {
            "name" : "motion", 
            "primitives" : [
                {
                    "attributes" : {
                        "NORMAL" : 10, 
                        "POSITION" : 9, 
                        "TEXCOORD_0" : 11
                    }, 
                    "indices" : 8
                }
            ]
        }, 
        {
            "name" : "keyboard", 
            "primitives" : [
                {
                    "attributes" : {
                        "NORMAL" : 14, 
                        "POSITION" : 13, 
                        "TEXCOORD_0" : 15
                    }, 
                    "indices" : 12
                }
            ]
        }
    ], 
    "nodes" : [
        {
            "mesh" : 3, 
            "name" : "keyboard", 
            "translation" : [
                -1.5, 
                0.0, 
                -0.0
            ]
        }, 
        {
            "mesh" : 2, 
            "name" : "motion", 
            "translation" : [
                1.5, 
                0.0, 
                -0.0
            ]
        }, 
        {
            "mesh" : 0, 
            "name" : "mouse", 
            "translation" : [
                -4.5, 
                0.0, 
                -0.0
            ]
        }, 
        {
            "mesh" : 1, 
            "name" : "sound", 
            "translation" : [
                4.5, 
                0.0, 
                -0.0
            ]
        }
    ], 
    "scene" : 0, 
    "scenes" : [
        {
            "name" : "Scene", 
            "nodes" : [
                3, 
                1, 
                2, 
                0
            ]
        }
    ]
}
