{
    "accessors" : [
        {
            "bufferView" : 0, 
            "componentType" : 5121, 
            "count" : 126, 
            "max" : [
                43
            ], 
            "min" : [
                0
            ], 
            "type" : "SCALAR"
        }, 
        {
            "bufferView" : 1, 
            "componentType" : 5126, 
            "count" : 44, 
            "max" : [
                0.5, 
                1.0, 
                0.18343205749988556
            ], 
            "min" : [
                -0.5, 
                0.0, 
                -1.6745123863220215
            ], 
            "type" : "VEC3"
        }, 
        {
            "bufferView" : 2, 
            "componentType" : 5126, 
            "count" : 44, 
            "max" : [
                0.0, 
                1.0, 
                0.99993896484375
            ], 
            "min" : [
                0.0, 
                -0.037598803639411926, 
                -0.0
            ], 
            "type" : "VEC3"
        }, 
        {
            "bufferView" : 3, 
            "componentType" : 5126, 
            "count" : 44, 
            "max" : [
                -0.9999999403953552, 
                1.652379410188587e-06, 
                1.34101264848141e-06, 
                1.0
            ], 
            "min" : [
                -1.0, 
                -1.203609087951918e-07, 
                -8.488872822454141e-07, 
                1.0
            ], 
            "type" : "VEC4"
        }, 
        {
            "bufferView" : 4, 
            "componentType" : 5126, 
            "count" : 44, 
            "max" : [
                1.0131233930587769, 
                0.9999376237392426
            ], 
            "min" : [
                0.001201927661895752, 
                6.240606307983398e-05
            ], 
            "type" : "VEC2"
        }
    ], 
    "asset" : {
        "generator" : "Khronos Blender glTF 2.0 exporter", 
        "version" : "2.0"
    }, 
    "bufferViews" : [
        {
            "buffer" : 0, 
            "byteLength" : 126, 
            "byteOffset" : 0, 
            "target" : 34963
        }, 
        {
            "buffer" : 0, 
            "byteLength" : 528, 
            "byteOffset" : 128, 
            "target" : 34962
        }, 
        {
            "buffer" : 0, 
            "byteLength" : 528, 
            "byteOffset" : 656, 
            "target" : 34962
        }, 
        {
            "buffer" : 0, 
            "byteLength" : 704, 
            "byteOffset" : 1184, 
            "target" : 34962
        }, 
        {
            "buffer" : 0, 
            "byteLength" : 352, 
            "byteOffset" : 1888, 
            "target" : 34962
        }
    ], 
    "buffers" : [
        {
            "byteLength" : 2240, 
            "uri" : "background.bin"
        }
    ], 
    "meshes" : [
        {
            "name" : "Plane", 
            "primitives" : [
                {
                    "attributes" : {
                        "NORMAL" : 2, 
                        "POSITION" : 1, 
                        "TANGENT" : 3, 
                        "TEXCOORD_0" : 4
                    }, 
                    "indices" : 0
                }
            ]
        }
    ], 
    "nodes" : [
        {
            "mesh" : 0, 
            "name" : "Plane"
        }
    ], 
    "scene" : 0, 
    "scenes" : [
        {
            "name" : "Scene", 
            "nodes" : [
                0
            ]
        }
    ]
}
