<svg xmlns="http://www.w3.org/2000/svg" xmlns:xlink="http://www.w3.org/1999/xlink" viewBox="0 0 392.37 238.2"><defs><style>.cls-1,.cls-2{fill:none;}.cls-2{stroke:#1a171b;stroke-width:0.75px;}.cls-3{fill:#e8fd55;}.cls-4{opacity:0.5;fill:url(#SVGID_1_);}.cls-4,.cls-7{isolation:isolate;}.cls-5,.cls-7{fill:#0921f3;}.cls-6{fill:#fffefc;}.cls-7{font-size:153.59px;font-family:VentographyPersonalUseOnly, Ventography Personal Use Only;}.cls-8{fill:#fff;}</style><pattern id="SVGID_1_" data-name="SVGID 1 " width="72" height="72" patternTransform="matrix(1, 0, 0, -1, 273.91, 435.12)" patternUnits="userSpaceOnUse" viewBox="0 0 72 72"><rect class="cls-1" width="72" height="72"/><polygon class="cls-1" points="72 0 0 0 0 72 72 72 72 0"/><path class="cls-2" d="M13.35,56.47s3.79,1.74,4.5-2.08,2.61-3.5,4.82-2.23,4.56.74,5.14-2.37"/><path class="cls-2" d="M66,43.26s-2.6-3.26-5-.18S57.18,45,55.78,42.9s-3.74-2.72-5.66-.2"/><path class="cls-2" d="M39,43s-3.82,1.67-1.45,4.74S38.45,52,36,52.76s-3.59,2.91-1.65,5.42"/><path class="cls-2" d="M41.14,47.18s4.08.88,2.36,4.36,0,4.36,2.52,4.67,4.1,2.14,2.69,5"/><path class="cls-2" d="M55.12,57.13s4.08.88,2.36,4.36,0,4.36,2.52,4.67,4.1,2.14,2.69,5"/><path class="cls-2" d="M27.39,37.81s3.68,2,1.07,4.84-1.21,4.19,1.15,5.18S33,51,30.83,53.36"/><path class="cls-2" d="M10.39,49.06s1.29-4-2.58-4.23S4,42.64,5,40.3s.21-4.62-2.94-4.84"/><path class="cls-2" d="M7.56,30.84s-2,3.65,1.73,4.65,3.29,2.87,1.85,5S10,45,13.1,45.76"/><path class="cls-2" d="M20.44,55s1.35,3.95,4.6,1.83,4.33-.52,4.93,2,2.61,3.82,5.26,2.09"/><path class="cls-2" d="M12.33,27.52s-1.76,3.78,2,4.51,3.48,2.63,2.19,4.83S15.8,41.43,18.91,42"/><path class="cls-2" d="M24,33.33s-3.43,2.37-.51,4.93,1.68,4-.55,5.28-3,3.55-.58,5.63"/><path class="cls-2" d="M11,12.36s.31,4.16,4,2.94,4.32.6,4.27,3.15,1.55,4.35,4.56,3.36"/><path class="cls-2" d="M29.5,19.14s-.38-4.15-4-2.87-4.33-.52-4.33-3.07-1.63-4.33-4.62-3.27"/><path class="cls-2" d="M19.67,44.69s-4.17-.18-3.38,3.62-1.09,4.22-3.62,3.88-4.5,1-3.86,4.14"/><path class="cls-2" d="M32.71,44s-1.49-3.9,2.37-4.35,3.66-2.38,2.53-4.66-.44-4.6,2.7-5"/><path class="cls-2" d="M3.32,26.33s1.92-3.7,4.82-1.13,4.21,1.15,5.17-1.21,3.14-3.39,5.51-1.29"/><path class="cls-2" d="M51,60.62s-1.86,3.73,1.93,4.56S56.36,67.9,55,70.07s-.88,4.54,2.21,5.21"/><path class="cls-2" d="M51-11.38s-1.86,3.73,1.93,4.56S56.36-4.1,55-1.93s-.88,4.54,2.21,5.21"/><path class="cls-2" d="M64.56,62S67,58.66,63.44,57.2s-2.9-3.26-1.2-5.17,1.64-4.32-1.29-5.51"/><path class="cls-2" d="M59.95,57.73s-4.09-.84-2.4-4.33,0-4.36-2.57-4.64-4.12-2.1-2.75-5"/><path class="cls-2" d="M17.08,71.28s4.17-.2,3-3.91.7-4.31,3.25-4.19,4.39-1.44,3.47-4.47"/><path class="cls-2" d="M39.44,56.29s-4,1-2.23,4.42.13,4.36-2.39,4.74-4,2.26-2.55,5.06"/><path class="cls-2" d="M18,64.1s-4,1.27-4.22-2.6-2.17-3.78-4.52-2.78-4.62.19-4.82-3"/><path class="cls-2" d="M8.4,7.86s1-4.06-2.92-4S1.54,2,2.35-.43,2.17-5-1-5"/><path class="cls-2" d="M8.4,79.86s1-4.06-2.92-4S1.54,74,2.35,71.57,2.17,67-1,67"/><path class="cls-2" d="M70.32,38.52S68,35,65.41,37.87s-4.07,1.56-5.26-.7-3.46-3.07-5.61-.75"/><path class="cls-2" d="M50.38,70.41s1-4.06-2.92-4-3.94-1.86-3.13-4.28S44.15,57.5,41,57.55"/><path class="cls-2" d="M43.88,40.2s-1.63,3.83,2.2,4.44,3.57,2.51,2.35,4.76-.61,4.58,2.51,5.07"/><path class="cls-2" d="M74.88,38.39s-4.15.44-2.81,4.08-.46,4.34-3,4.38-4.3,1.69-3.21,4.67"/><path class="cls-2" d="M2.88,38.39s-4.15.44-2.81,4.08-.45,4.34-3,4.38-4.3,1.69-3.21,4.67"/><path class="cls-2" d="M62.12,33.78s3.47,2.32,4.77-1.34S70,29.4,72,31s4.39,1.45,5.45-1.53"/><path class="cls-2" d="M-9.88,33.78s3.47,2.32,4.77-1.34S-2,29.4,0,31s4.39,1.45,5.45-1.53"/><path class="cls-2" d="M71.68,9.27s-.76-4.1-4.29-2.48S63,6.67,62.8,4.12s-2-4.16-4.9-2.84"/><path class="cls-2" d="M28.78,28s4.13-.55,2.7-4.16.34-4.35,2.89-4.45,4.25-1.81,3.08-4.75"/><path class="cls-2" d="M14.79,28.57s1.2-4,4.53-2,4.35.35,4.85-2.15,2.46-3.91,5.18-2.29"/><path class="cls-2" d="M1.79,12S3,8,6.33,10s4.35.35,4.85-2.15,2.46-3.91,5.18-2.29"/><path class="cls-2" d="M37.88,3s4.15.36,2.89,4,.54,4.33,3.09,4.31,4.33,1.61,3.3,4.6"/><path class="cls-2" d="M34.49,11.91s3.21-2.66.08-5-2-3.87.09-5.31,2.65-3.79.1-5.66"/><path class="cls-2" d="M50.83,8.41s-3.37,2.46-.39,4.94,1.78,4-.42,5.29-2.87,3.62-.44,5.64"/><path class="cls-2" d="M55.94,12.57s2.82,3.07,5-.17,3.76-2.21,5.31-.18,3.92,2.45,5.66-.19"/><path class="cls-2" d="M40.17,39.52s4.16-.24,3-3.94.66-4.31,3.22-4.22,4.38-1.49,3.43-4.51"/><path class="cls-2" d="M31.67,31.59s-.39-4.15,3.45-3.56,4.17-1.31,3.69-3.81.81-4.55,3.94-4.07"/><path class="cls-2" d="M19.48,29.29s1.06,4,4.46,2.16,4.36-.21,4.78,2.31,2.33,4,5.1,2.46"/><path class="cls-2" d="M1.2,58.82s4.16.21,3,3.92.69,4.31,3.24,4.2,4.39,1.46,3.46,4.48"/><path class="cls-2" d="M35.69,14.35S31.87,16,31.22,12.2,28.67,8.66,26.44,9.9s-4.57.66-5.1-2.46"/><path class="cls-2" d="M11.8,19.18S10.21,23,7.09,20.73s-4.29-.78-5,1.66S-.79,26-3.33,24.15"/><path class="cls-2" d="M83.8,19.18S82.21,23,79.09,20.73s-4.29-.78-5,1.66S71.21,26,68.67,24.15"/><path class="cls-2" d="M67.72,23.16s-1-4-4.44-2.21-4.36.16-4.75-2.36-2.28-4-5.07-2.52"/><path class="cls-2" d="M59.64,11.19S59.51,7,55.78,8.08s-4.29-.78-4.13-3.33S50.28.33,47.24,1.2"/><path class="cls-2" d="M51.35,24.06s2,3.65,4.85,1,4.17-1.27,5.2,1.07,3.24,3.3,5.55,1.14"/><path class="cls-2" d="M41.29,12.92s-2,3.68,1.81,4.61,3.34,2.81,1.94,4.94S44,27,47.09,27.75"/><path class="cls-2" d="M62-11.53s-1.29,4,2.58,4.23,3.77,2.19,2.76,4.53-.21,4.62,2.95,4.84"/><path class="cls-2" d="M62,60.47s-1.29,4,2.58,4.23,3.77,2.19,2.76,4.53-.21,4.62,2.95,4.84"/><path class="cls-2" d="M46.41,38s4.09.81,3.89-3.06,1.72-4,4.17-3.28,4.61-.34,4.45-3.5"/><path class="cls-2" d="M66.59,59.18s4.14.53,3.68-3.32,1.44-4.12,3.94-3.56,4.58-.65,4.2-3.8"/><path class="cls-2" d="M-5.41,59.18s4.14.53,3.68-3.32S-.29,51.74,2.2,52.3s4.58-.65,4.2-3.8"/><path class="cls-2" d="M65.07,18.16s2.41-3.4,4.93-.45,4,1.73,5.28-.48,3.58-2.92,5.64-.52"/><path class="cls-2" d="M-6.93,18.16s2.41-3.4,4.93-.45,4,1.73,5.28-.48,3.58-2.92,5.64-.52"/><path class="cls-2" d="M80.4,79.86s1-4.06-2.92-4S73.54,74,74.35,71.57,74.17,67,71,67"/><path class="cls-2" d="M45.46,9.17s-3.72-1.88-1.18-4.81S45.39.14,43-.8,39.59-3.9,41.66-6.3"/><path class="cls-2" d="M28.23-8.31s-3.57,2.16-.81,4.89S28.85.7,26.55,1.81s-3.18,3.36-.92,5.59"/><path class="cls-2" d="M34.49,83.91s3.21-2.66.08-5-2-3.87.09-5.31,2.65-3.79.1-5.66"/><path class="cls-2" d="M45.46,81.17s-3.72-1.88-1.18-4.81S45.39,72.14,43,71.2s-3.42-3.11-1.35-5.5"/><path class="cls-2" d="M20,78.31s1.19-4-2.68-4.17S13.46,72,14.42,69.68s.1-4.62-3.06-4.76"/><path class="cls-2" d="M28.23,63.68s-3.57,2.16-.81,4.89,1.43,4.12-.87,5.24-3.18,3.36-.92,5.59"/><path class="cls-2" d="M20,6.31s1.19-4-2.68-4.17S13.46,0,14.42-2.32s.1-4.62-3.06-4.76"/></pattern></defs><title>Asset 1</title><g id="Layer_2" data-name="Layer 2"><g id="Calque_1" data-name="Calque 1"><path class="cls-3" d="M112,32.59c38.34-10.51,25-26.31,70.32-15,21,5.23,27.36,4.14,50.71-4.09C264.84,2.24,303-6.87,335.31,7.06c13.2,5.69,31.45,13.16,35.68,28.46,5.7,20.6-7.81,57-13.57,77.31-9.12,32.08-54.46,67.8-79.68,87.87-10.65,8.48-25.22,13.24-38.6,17.6-20.17,6.58-38.78,18.87-60.67,19.76a153.08,153.08,0,0,1-53.86-7.17c-15.75-4.91-18.34-2.19-34.24-.3-22.1,2.63-46.24-5.4-62.94-19.53C-5,183.6-6.51,151.05,11.67,116.19c8.9-17.06,18.53-33.59,28.13-50.7,17-30.34,27.52-27,60-27"/><path class="cls-4" d="M132,32.59c38.34-10.51,25-26.31,70.32-15,21,5.23,27.36,4.14,50.71-4.09C284.85,2.24,323-6.87,355.32,7.06c13.2,5.69,31.45,13.16,35.68,28.46,5.7,20.6-7.81,57-13.57,77.31-9.12,32.08-54.46,67.8-79.68,87.87-10.65,8.48-25.22,13.24-38.6,17.6-20.17,6.58-38.78,18.87-60.67,19.76a153.08,153.08,0,0,1-53.86-7.17c-15.75-4.91-18.34-2.19-34.24-.3-22.1,2.63-46.24-5.4-62.94-19.53C15,183.6,13.5,151.05,31.68,116.19c8.9-17.06,18.53-33.59,28.13-50.7,17-30.34,27.52-27,60-27"/><path class="cls-5" d="M111.38,106.07a7,7,0,0,1,3.07,1.15,17.32,17.32,0,0,1,3.61,2.76,12.4,12.4,0,0,1,2.46,3.38,2.3,2.3,0,0,1-.23,2.84,202.71,202.71,0,0,0-16.43,19.12Q95.71,146,88.49,156.6q4,.31,7.29.46a29.67,29.67,0,0,0,5.45-.15q5.22-8,11.21-16.13t11.67-15.13q5.68-7,10.52-12.21a43.35,43.35,0,0,1,8.06-7.22q.77-.46,2.69.54a14.8,14.8,0,0,1,3.61,2.69,13.26,13.26,0,0,1,2.61,3.61,2.53,2.53,0,0,1-.31,3.15q-6.3,6.3-12.59,14t-11.9,15.44q-5.61,7.76-10.21,14.9t-7.53,12.59a45.19,45.19,0,0,0-3.76,8.52q-.85,3.07,1.15,2.61,2.92-.77,1.84.92a21.16,21.16,0,0,1-3.76,4.07,51.45,51.45,0,0,1-5.84,4.45q-3.15,2.07-4.22,2.07a8.21,8.21,0,0,1-3.38-.85,18.36,18.36,0,0,1-3.38-2,16.09,16.09,0,0,1-2.53-2.3q-1-1.15-1-1.61,0-2.92,3.92-10.29t10.06-16.9l-14,1.23q-3.84,5.68-7.07,10.83l-5.76,9.21q-2.53,4.07-4.22,6.91t-2.46,3.92a2.8,2.8,0,0,1-2.77,1.23,10.74,10.74,0,0,1-3.76-1.07,13.11,13.11,0,0,1-3.38-2.3A3.9,3.9,0,0,1,53.32,189q0-2.15,3.61-9t9.14-15.9q-3.54.31-6.07.38a23.61,23.61,0,0,1-3.61-.08q-1.69,0-3.61-2.38a22.14,22.14,0,0,1-3.07-5,8.85,8.85,0,0,1-.92-4.53q.23-1.92,3-1.15a84.61,84.61,0,0,0,8.6,1.84q5.37.92,11.52,1.69,3.53-5.53,7.37-11.06t7.6-10.67q3.76-5.14,7.22-9.68a93.72,93.72,0,0,1,6.53-7.76c.72-.82,1-1.38.84-1.69a1.23,1.23,0,0,0-1.08-.54c-.56-.05-1.15-.08-1.77-.08s-1-.15-1.08-.46.25-.85,1.08-1.61a18.48,18.48,0,0,1,3.15-2.3,25.78,25.78,0,0,1,4.45-2.07A15,15,0,0,1,111.38,106.07Z"/><path class="cls-5" d="M148.85,134.64a10.79,10.79,0,0,1,5.61-.08,25.6,25.6,0,0,1,6.22,2.15,18.8,18.8,0,0,1,4.91,3.46q2,2,1.84,3.84-.16,2.3-2.61,6.91a66.52,66.52,0,0,1-6.22,9.45,74.32,74.32,0,0,1-8.06,8.83q-4.3,4-8.14,4.91a7,7,0,0,1-5.15-.85,34.07,34.07,0,0,1-4.84-3.15,45.9,45.9,0,0,0-4.76,12.52q-.92,5.15,3.07,5.45a9.39,9.39,0,0,0,3.3-.85,43,43,0,0,0,4.68-2.3q2.61-1.46,5.61-3.46t6.07-4.15q2-1.53,2.53-1.07t-1,2.3a56,56,0,0,1-5.45,5.61,64.4,64.4,0,0,1-6.07,4.84,41.51,41.51,0,0,1-6,3.53,14.7,14.7,0,0,1-4.91,1.54,12.64,12.64,0,0,1-3.69-.31,19.66,19.66,0,0,1-4.46-1.46,17.92,17.92,0,0,1-3.84-2.38,6.05,6.05,0,0,1-2.15-3.07,20.94,20.94,0,0,1,0-9.45A50.73,50.73,0,0,1,118.83,167a66.25,66.25,0,0,1,6-10.52,85.13,85.13,0,0,1,7.68-9.6,66.24,66.24,0,0,1,8.29-7.6A30.56,30.56,0,0,1,148.85,134.64Zm-14.75,32.87q1.84-.15,5-2.38a59.75,59.75,0,0,0,6.68-5.61,88.52,88.52,0,0,0,6.91-7.45,58.49,58.49,0,0,0,5.53-7.76c.61-1.12.87-1.79.77-2s-.82.1-2.15.92a70.61,70.61,0,0,0-5.84,4.68q-3.23,2.84-6.37,6.22T138.72,161A59.94,59.94,0,0,0,134.11,167.51Z"/><path class="cls-5" d="M187.25,134.18a8.93,8.93,0,0,1,2.92.69,22.59,22.59,0,0,1,3.53,1.69,10.4,10.4,0,0,1,2.61,2.07q.92,1.08,0,1.84-1.69,1.69-5,5.07t-7.45,8.37q-4.15,5-8.76,11.21t-9.22,13.44q5.07-6.91,11.21-14.05t12.06-13.29q5.91-6.14,10.91-10.6a49.12,49.12,0,0,1,7.76-6,7.58,7.58,0,0,1,2.92-.54,13.31,13.31,0,0,1,4.15.54,12.21,12.21,0,0,1,4,2,6.59,6.59,0,0,1,2.46,3.53q.15.62-1.23,2.46a52.48,52.48,0,0,1-3.61,4.22q-2.23,2.38-4.84,5t-4.76,4.91q-2.15,2.3-3.53,3.84c-.92,1-1.28,1.64-1.07,1.84s.51,0,1.23-.23,1.43-.49,2.15-.69a2.94,2.94,0,0,1,1.54-.15q.46.15-.61,1.54a34.75,34.75,0,0,1-3,3.53q-1.77,1.84-3.53,3.38a23.51,23.51,0,0,1-3.46,2.53,6,6,0,0,1-2.92,1,6.05,6.05,0,0,1-2.84-.77,16,16,0,0,1-2.77-1.84,9.53,9.53,0,0,1-2.07-2.3,4.38,4.38,0,0,1-.77-2.3,8.07,8.07,0,0,1,1.61-3.53q1.61-2.46,3.69-5.22t4.22-5.53a44.62,44.62,0,0,0,3.23-4.61q-4.3,4-9.52,9.68T178,168.82q-5.22,6.22-9.91,12.29a124.84,124.84,0,0,0-7.6,10.83l-.61,1.23a1.67,1.67,0,0,1-2.23.69,8.22,8.22,0,0,1-2.92-2,19.78,19.78,0,0,1-2.61-3.23,5.74,5.74,0,0,1-1.15-2.84q0-2.3,2.3-7a118.12,118.12,0,0,1,5.91-10.44q3.61-5.76,8-11.83t8.37-11.06a90.62,90.62,0,0,1,7.22-8.14Q186,134.18,187.25,134.18Z"/><path class="cls-5" d="M255.44,147.08q.46,2.76-1.15,7.29a61.92,61.92,0,0,1-4.53,9.68,102.47,102.47,0,0,1-6.91,10.52,99.46,99.46,0,0,1-8.22,9.75,61.48,61.48,0,0,1-8.29,7.3A17.26,17.26,0,0,1,219,195a12,12,0,0,1-4.22-.69,32.71,32.71,0,0,1-5.68-2.3,33.59,33.59,0,0,1-5.15-3.23q-2.3-1.76-2.61-3.3a17.5,17.5,0,0,1,.77-8,60.81,60.81,0,0,1,4.07-10.14,101.55,101.55,0,0,1,6.37-10.9,88.31,88.31,0,0,1,7.76-10.06,58.25,58.25,0,0,1,8.14-7.6,20.34,20.34,0,0,1,7.45-3.84,11.56,11.56,0,0,1,5.61.54,28.26,28.26,0,0,1,6.07,2.76,24.17,24.17,0,0,1,5.15,4.15A9.9,9.9,0,0,1,255.44,147.08Zm-9.37-5.22q-1.23-.61-4.38,2.3a77.27,77.27,0,0,0-7.14,7.83q-4,4.92-8.22,10.9t-7.53,11.44a85.43,85.43,0,0,0-5.07,9.45q-1.77,4-.69,4.76.92.77,4.07-2.23a87.81,87.81,0,0,0,7.22-8q4.07-5,8.37-11.06t7.68-11.52a74.76,74.76,0,0,0,5.07-9.37Q247.15,142.47,246.07,141.86Z"/><path class="cls-6" d="M116.38,109.07a7,7,0,0,1,3.07,1.15,17.32,17.32,0,0,1,3.61,2.76,12.4,12.4,0,0,1,2.46,3.38,2.3,2.3,0,0,1-.23,2.84,202.71,202.71,0,0,0-16.43,19.12Q100.71,149,93.5,159.61q4,.31,7.29.46a29.67,29.67,0,0,0,5.45-.15q5.22-8,11.21-16.13t11.67-15.13q5.68-7,10.52-12.21a43.35,43.35,0,0,1,8.06-7.22q.77-.46,2.69.54a14.8,14.8,0,0,1,3.61,2.69,13.26,13.26,0,0,1,2.61,3.61,2.53,2.53,0,0,1-.31,3.15q-6.3,6.3-12.59,14t-11.9,15.44q-5.61,7.76-10.21,14.9t-7.53,12.59a45.19,45.19,0,0,0-3.76,8.52q-.85,3.07,1.15,2.61,2.92-.77,1.84.92a21.16,21.16,0,0,1-3.76,4.07,51.45,51.45,0,0,1-5.84,4.45q-3.15,2.07-4.22,2.07a8.21,8.21,0,0,1-3.38-.85,18.36,18.36,0,0,1-3.38-2,16.09,16.09,0,0,1-2.53-2.3q-1-1.15-1-1.61,0-2.92,3.92-10.29t10.06-16.9l-14,1.23q-3.84,5.68-7.07,10.83l-5.76,9.21q-2.53,4.07-4.22,6.91t-2.46,3.92a2.8,2.8,0,0,1-2.77,1.23,10.74,10.74,0,0,1-3.76-1.07,13.11,13.11,0,0,1-3.38-2.3A3.9,3.9,0,0,1,58.32,192q0-2.15,3.61-9t9.14-15.9q-3.54.31-6.07.38a23.61,23.61,0,0,1-3.61-.08q-1.69,0-3.61-2.38a22.14,22.14,0,0,1-3.07-5,8.85,8.85,0,0,1-.92-4.53q.23-1.92,3-1.15a84.61,84.61,0,0,0,8.6,1.84q5.37.92,11.52,1.69,3.53-5.53,7.37-11.06t7.6-10.67q3.76-5.14,7.22-9.68a93.72,93.72,0,0,1,6.53-7.76c.72-.82,1-1.38.84-1.69a1.23,1.23,0,0,0-1.08-.54c-.56-.05-1.15-.08-1.77-.08s-1-.15-1.08-.46.25-.85,1.08-1.61a18.48,18.48,0,0,1,3.15-2.3,25.78,25.78,0,0,1,4.45-2.07A15,15,0,0,1,116.38,109.07Z"/><path class="cls-6" d="M153.85,137.64a10.79,10.79,0,0,1,5.61-.08,25.6,25.6,0,0,1,6.22,2.15,18.81,18.81,0,0,1,4.92,3.46q2,2,1.84,3.84-.16,2.3-2.61,6.91a66.53,66.53,0,0,1-6.22,9.45,74.32,74.32,0,0,1-8.06,8.83q-4.3,4-8.14,4.91a7,7,0,0,1-5.15-.85,34.07,34.07,0,0,1-4.84-3.15,45.9,45.9,0,0,0-4.76,12.52q-.92,5.15,3.07,5.45a9.39,9.39,0,0,0,3.3-.85,43,43,0,0,0,4.68-2.3q2.61-1.46,5.61-3.46t6.07-4.15q2-1.53,2.53-1.07t-1,2.3a56,56,0,0,1-5.45,5.61,64.4,64.4,0,0,1-6.07,4.84,41.51,41.51,0,0,1-6,3.53,14.7,14.7,0,0,1-4.91,1.54,12.64,12.64,0,0,1-3.69-.31,19.66,19.66,0,0,1-4.46-1.46,17.92,17.92,0,0,1-3.84-2.38,6.05,6.05,0,0,1-2.15-3.07,20.94,20.94,0,0,1,0-9.45A50.73,50.73,0,0,1,123.83,170a66.25,66.25,0,0,1,6-10.52,85.13,85.13,0,0,1,7.68-9.6,66.24,66.24,0,0,1,8.29-7.6A30.52,30.52,0,0,1,153.85,137.64Zm-14.74,32.87q1.84-.15,5-2.38a59.75,59.75,0,0,0,6.68-5.61,88.52,88.52,0,0,0,6.91-7.45,58.49,58.49,0,0,0,5.53-7.76c.61-1.12.87-1.79.77-2s-.82.1-2.15.92a70.61,70.61,0,0,0-5.84,4.68q-3.23,2.84-6.37,6.22T143.72,164A60,60,0,0,0,139.11,170.51Z"/><path class="cls-6" d="M192.25,137.18a8.93,8.93,0,0,1,2.92.69,22.59,22.59,0,0,1,3.53,1.69,10.4,10.4,0,0,1,2.61,2.07q.92,1.08,0,1.84-1.69,1.69-5,5.07t-7.45,8.37q-4.15,5-8.76,11.21t-9.21,13.44q5.07-6.91,11.21-14.05t12.06-13.29q5.91-6.14,10.91-10.6a49.12,49.12,0,0,1,7.76-6,7.58,7.58,0,0,1,2.92-.54,13.31,13.31,0,0,1,4.15.54,12.21,12.21,0,0,1,4,2,6.59,6.59,0,0,1,2.46,3.53q.15.62-1.23,2.46a52.48,52.48,0,0,1-3.61,4.22q-2.23,2.38-4.84,5t-4.76,4.91q-2.15,2.3-3.53,3.84c-.92,1-1.28,1.64-1.07,1.84s.51,0,1.23-.23,1.43-.49,2.15-.69a2.94,2.94,0,0,1,1.54-.15q.46.15-.61,1.54a34.75,34.75,0,0,1-3,3.53q-1.77,1.84-3.53,3.38a23.51,23.51,0,0,1-3.46,2.53,6,6,0,0,1-2.92,1,6.05,6.05,0,0,1-2.84-.77,16,16,0,0,1-2.77-1.84,9.53,9.53,0,0,1-2.07-2.3,4.38,4.38,0,0,1-.77-2.3,8.07,8.07,0,0,1,1.61-3.53q1.61-2.46,3.69-5.22t4.22-5.53a44.62,44.62,0,0,0,3.23-4.61q-4.3,4-9.52,9.68T183,171.82q-5.22,6.22-9.91,12.29a124.82,124.82,0,0,0-7.6,10.83l-.61,1.23a1.67,1.67,0,0,1-2.23.69,8.22,8.22,0,0,1-2.92-2,19.78,19.78,0,0,1-2.61-3.23,5.74,5.74,0,0,1-1.15-2.84q0-2.3,2.3-7a118.12,118.12,0,0,1,5.91-10.44q3.61-5.76,8-11.83t8.37-11.06a90.62,90.62,0,0,1,7.22-8.14Q191,137.18,192.25,137.18Z"/><path class="cls-6" d="M260.44,150.08q.46,2.76-1.15,7.29a61.92,61.92,0,0,1-4.53,9.68,102.47,102.47,0,0,1-6.91,10.52,99.46,99.46,0,0,1-8.22,9.75,61.48,61.48,0,0,1-8.29,7.3A17.26,17.26,0,0,1,224,198a12,12,0,0,1-4.22-.69,32.71,32.71,0,0,1-5.68-2.3,33.59,33.59,0,0,1-5.15-3.23q-2.3-1.76-2.61-3.3a17.5,17.5,0,0,1,.77-8,60.81,60.81,0,0,1,4.07-10.14,101.55,101.55,0,0,1,6.37-10.9,88.31,88.31,0,0,1,7.76-10.06,58.25,58.25,0,0,1,8.14-7.6,20.34,20.34,0,0,1,7.45-3.84,11.56,11.56,0,0,1,5.61.54,28.26,28.26,0,0,1,6.07,2.76,24.17,24.17,0,0,1,5.15,4.15A9.9,9.9,0,0,1,260.44,150.08Zm-9.37-5.22q-1.23-.61-4.38,2.3a77.27,77.27,0,0,0-7.14,7.83q-4,4.92-8.22,10.9t-7.53,11.44a85.43,85.43,0,0,0-5.07,9.45q-1.77,4-.69,4.76.92.77,4.07-2.23a87.81,87.81,0,0,0,7.22-8q4.07-5,8.37-11.06t7.68-11.52a74.76,74.76,0,0,0,5.07-9.37Q252.15,145.47,251.07,144.86Z"/><text class="cls-7" transform="translate(124.35 130.16)">Yolo</text><path class="cls-8" d="M279.74,168.85a12.22,12.22,0,0,1,4.25.61,20.89,20.89,0,0,1,5.06,2.18,8.85,8.85,0,0,1,3.37,3.32q1,1.91-.81,3.8-2.06,2.11-4.58,4.74t-5.13,4.94q-2.62,2.31-4.88,4.07a8.08,8.08,0,0,1-3.8,1.93,17.26,17.26,0,0,1-4.69-.41,19.45,19.45,0,0,1-4.65-1.61,11,11,0,0,1-3.51-2.66A5.27,5.27,0,0,1,259.1,186q.07-1.75,2.71-4.6a54.24,54.24,0,0,1,6-5.56,55.44,55.44,0,0,1,6.76-4.65A19.63,19.63,0,0,1,279.74,168.85ZM290,150.65A60.26,60.26,0,0,1,295.43,140q4.23-6.94,10.16-15.25t13.08-17.1q7.15-8.8,13.92-16.19a143.17,143.17,0,0,1,12.67-12.41q5.9-5,9.44-6a10.94,10.94,0,0,1,5,.64,44.07,44.07,0,0,1,6.69,2.57,21.87,21.87,0,0,1,5.13,3.28q1.9,1.72.77,2.55-3.39,2.49-9.18,7.4t-12.63,11.53q-6.84,6.62-14.38,14.2t-14.53,15.18q-7,7.6-13.09,14.8T298.42,158a3.65,3.65,0,0,1-2.91,1.52,5,5,0,0,1-3.24-1.12,7.27,7.27,0,0,1-2.28-3.16A6.94,6.94,0,0,1,290,150.65Z"/><path class="cls-6" d="M218.13,44.46q1.23-.77,3.69.08a15.76,15.76,0,0,1,4.61,2.53,10.83,10.83,0,0,1,3.15,3.76,2.9,2.9,0,0,1-.54,3.61q-6.15,6.3-12.44,14t-11.9,15.44q-5.61,7.76-10.21,14.9T187,111.35a45.18,45.18,0,0,0-3.76,8.52q-.85,3.07,1.15,2.61,2.92-.77,1.77.92a23.94,23.94,0,0,1-3.84,4.07,55.32,55.32,0,0,1-5.76,4.45q-3.07,2.07-4.15,2.07a8,8,0,0,1-3.46-.85,19.45,19.45,0,0,1-3.3-2,16.09,16.09,0,0,1-2.53-2.3q-1-1.15-1-1.61,0-2,1.84-6.37A109.93,109.93,0,0,1,169,110.66q3.23-5.83,7.45-12.67t9-13.75q-3.07,2.76-6.6,5.84t-6.68,5.76a69.6,69.6,0,0,1-5.61,4.38q-2.46,1.69-3.38,1.69a6.05,6.05,0,0,1-2.84-.77,12.17,12.17,0,0,1-2.69-1.92,12,12,0,0,1-2-2.38,6,6,0,0,1-.92-2.3,26.38,26.38,0,0,1,1.84-11.37A72.61,72.61,0,0,1,163.07,70a115.72,115.72,0,0,1,10-13.67q5.76-6.83,12.21-13.13,1.07-1.07,3.3-.23a17.94,17.94,0,0,1,4.38,2.46A13.71,13.71,0,0,1,196.32,49q1.23,1.92.15,3.15-8.91,10.6-14.59,18T173,82.24A41.08,41.08,0,0,0,169,89.46q-.92,2.46-.15,3.07.15.31,3.23-2t7.14-5.68q4.07-3.38,8.29-7.07t6.68-6q7.06-9.83,13.52-17.28T218.13,44.46Z"/><path class="cls-6" d="M248.85,85.32q.46,2.76-1.15,7.29a61.92,61.92,0,0,1-4.53,9.68,102.48,102.48,0,0,1-6.91,10.52,99.46,99.46,0,0,1-8.22,9.75,61.48,61.48,0,0,1-8.29,7.3,17.26,17.26,0,0,1-7.3,3.38,12,12,0,0,1-4.22-.69,32.71,32.71,0,0,1-5.68-2.3,33.59,33.59,0,0,1-5.15-3.23q-2.3-1.76-2.61-3.3a17.5,17.5,0,0,1,.77-8,60.81,60.81,0,0,1,4.07-10.14A101.72,101.72,0,0,1,206,94.68a88.31,88.31,0,0,1,7.76-10.06,58.25,58.25,0,0,1,8.14-7.6,20.34,20.34,0,0,1,7.45-3.84,11.56,11.56,0,0,1,5.61.54A28.26,28.26,0,0,1,241,76.48a24.17,24.17,0,0,1,5.15,4.15A9.9,9.9,0,0,1,248.85,85.32Zm-9.37-5.22q-1.23-.61-4.38,2.3A77.27,77.27,0,0,0,228,90.23q-4,4.92-8.22,10.9t-7.53,11.44a85.43,85.43,0,0,0-5.07,9.45q-1.77,4-.69,4.76.92.77,4.07-2.23a87.81,87.81,0,0,0,7.22-8q4.07-5,8.37-11.06T233.8,94a74.76,74.76,0,0,0,5.07-9.37Q240.55,80.71,239.48,80.09Z"/><path class="cls-6" d="M295.08,39.39a8.7,8.7,0,0,1,3.07.38,13.85,13.85,0,0,1,4,1.69A10,10,0,0,1,305,44a2,2,0,0,1-.23,2.76Q298.3,54,291.7,62.12T279,78.4Q273,86.55,267.74,94.07t-8.91,13.44q-3.69,5.91-5.61,9.6t-1.46,4.15c.1.1.54,0,1.31-.31a23.08,23.08,0,0,1,2.23-.77,3,3,0,0,1,1.54-.15c.31.1.1.61-.61,1.54a41.39,41.39,0,0,1-3,3.61,44.14,44.14,0,0,1-3.53,3.46,23.51,23.51,0,0,1-3.46,2.53,6,6,0,0,1-2.92,1,6.51,6.51,0,0,1-2.92-.77,12.9,12.9,0,0,1-2.77-1.84,9.65,9.65,0,0,1-2-2.38,4.79,4.79,0,0,1-.77-2.38q0-2.15,2.3-7t6.07-11.14q3.76-6.3,8.68-13.59T262.13,78.4q5.3-7.37,10.6-14.28t9.83-12.29q4.53-5.37,7.83-8.75T295.08,39.39Z"/><path class="cls-6" d="M315.35,85.32q.46,2.76-1.15,7.29a61.92,61.92,0,0,1-4.53,9.68,102.48,102.48,0,0,1-6.91,10.52,99.46,99.46,0,0,1-8.22,9.75,61.48,61.48,0,0,1-8.29,7.3,17.26,17.26,0,0,1-7.3,3.38,12,12,0,0,1-4.22-.69,32.71,32.71,0,0,1-5.68-2.3A33.59,33.59,0,0,1,263.9,127q-2.3-1.76-2.61-3.3a17.5,17.5,0,0,1,.77-8,60.81,60.81,0,0,1,4.07-10.14,101.72,101.72,0,0,1,6.37-10.9,88.31,88.31,0,0,1,7.76-10.06,58.25,58.25,0,0,1,8.14-7.6,20.34,20.34,0,0,1,7.45-3.84,11.56,11.56,0,0,1,5.61.54,28.26,28.26,0,0,1,6.07,2.76,24.17,24.17,0,0,1,5.15,4.15A9.9,9.9,0,0,1,315.35,85.32ZM306,80.09q-1.23-.61-4.38,2.3a77.27,77.27,0,0,0-7.14,7.83q-4,4.92-8.22,10.9t-7.53,11.44a85.43,85.43,0,0,0-5.07,9.45q-1.77,4-.69,4.76.92.77,4.07-2.23a87.81,87.81,0,0,0,7.22-8q4.07-5,8.37-11.06T300.3,94a74.76,74.76,0,0,0,5.07-9.37Q307.05,80.71,306,80.09Z"/><path class="cls-5" d="M284.13,169a12.2,12.2,0,0,1,4.25.61,20.92,20.92,0,0,1,5.06,2.18,8.84,8.84,0,0,1,3.37,3.31q1,1.91-.81,3.8-2.06,2.11-4.58,4.74t-5.13,4.94q-2.61,2.31-4.88,4.07a8.08,8.08,0,0,1-3.8,1.93,17.22,17.22,0,0,1-4.69-.41,19.51,19.51,0,0,1-4.65-1.61,11,11,0,0,1-3.51-2.66,5.27,5.27,0,0,1-1.27-3.78q.07-1.75,2.71-4.6a54.34,54.34,0,0,1,6-5.56A55.44,55.44,0,0,1,279,171.3,19.61,19.61,0,0,1,284.13,169Zm10.22-18.2a60.21,60.21,0,0,1,5.47-10.62Q304,133.22,310,124.91t13.08-17.1Q330.2,99,337,91.62a143.15,143.15,0,0,1,12.67-12.41q5.9-5,9.44-6a10.94,10.94,0,0,1,5,.64,44,44,0,0,1,6.69,2.57,21.78,21.78,0,0,1,5.13,3.28q1.9,1.72.77,2.55-3.39,2.49-9.18,7.4t-12.63,11.53q-6.84,6.62-14.38,14.2T326,130.61q-7,7.6-13.09,14.8t-10.05,12.73a3.65,3.65,0,0,1-2.91,1.52,5,5,0,0,1-3.24-1.12,7.27,7.27,0,0,1-2.28-3.16A6.94,6.94,0,0,1,294.35,150.79Z"/></g></g></svg>