<svg xmlns="http://www.w3.org/2000/svg" viewBox="0 0 392.36 238.2"><defs><style>.cls-1{fill:#e8fd55;}.cls-2{fill:none;}.cls-3{fill:#ff1ae9;}.cls-4,.cls-6{fill:#0921f3;}.cls-5{fill:#fffefc;}.cls-6{isolation:isolate;font-size:153.59px;font-family:VentographyPersonalUseOnly, Ventography Personal Use Only;}.cls-7{fill:#fff;}</style></defs><title>Asset 5</title><g id="Layer_2" data-name="Layer 2"><g id="Calque_1" data-name="Calque 1"><path class="cls-1" d="M112,32.59c38.34-10.51,25-26.31,70.32-15,21,5.23,27.36,4.14,50.71-4.09C264.84,2.24,303-6.87,335.31,7.06c13.2,5.69,31.45,13.16,35.68,28.46,5.7,20.6-7.81,57-13.57,77.31-9.12,32.08-54.46,67.8-79.67,87.87-10.65,8.48-25.22,13.24-38.6,17.6-20.17,6.58-38.78,18.87-60.67,19.76a153.08,153.08,0,0,1-53.86-7.17c-15.75-4.91-18.34-2.19-34.24-.3-22.1,2.63-46.24-5.4-62.94-19.53C-5,183.6-6.51,151.05,11.67,116.19c8.9-17.06,18.53-33.59,28.13-50.7,17-30.34,27.52-27,60-27"/><path class="cls-2" d="M356.16,130.06a44.74,44.74,0,1,1,35.43-72c1.09-8.37,1.15-16.18-.6-22.5-3.69-13.33-18-20.71-30.36-26.16A22.77,22.77,0,1,1,316.07,0a154.07,154.07,0,0,0-28.18,3.4,48.75,48.75,0,1,1-77.43,16c-2.49-.49-5.17-1.1-8.16-1.84-3.87-1-7.3-1.72-10.38-2.31a35,35,0,1,1-66.69,20.6l-5.4,2.62h-3.22A43,43,0,0,1,46.75,88.6c-5.16,9.16-10.23,18.3-15.08,27.59a111.23,111.23,0,0,0-9,22.53,28.32,28.32,0,0,1,4.42,47.93,73.28,73.28,0,0,0,9.33,13.57A22.77,22.77,0,0,1,73.65,226a81.39,81.39,0,0,0,36.72,4.58c11.35-1.35,15.92-3.12,23.33-2.23a48.74,48.74,0,1,1,67.91,9.5c19.82-1.79,37.08-12.48,55.5-18.86a22.77,22.77,0,1,1,25.32-9.24,72.55,72.55,0,0,0,15.31-9c4.58-3.64,9.82-7.81,15.39-12.37a15.09,15.09,0,0,1,22.23-19.2c14-12.95,27.47-27.34,35.64-41.61A44.65,44.65,0,0,1,356.16,130.06ZM90,181.36a34.77,34.77,0,1,1,34.77-34.77A34.77,34.77,0,0,1,90,181.36Zm62-49.89a28.32,28.32,0,1,1,28.32-28.32A28.32,28.32,0,0,1,152,131.47Zm54.27-18a15.1,15.1,0,1,1,15.1-15.1A15.1,15.1,0,0,1,206.28,113.5Zm49.36,52.84a34.25,34.25,0,1,1,34.25-34.25A34.25,34.25,0,0,1,255.65,166.35Zm60.26-13.44A15.1,15.1,0,1,1,331,137.8,15.1,15.1,0,0,1,315.9,152.91Z"/><path class="cls-3" d="M81.35,106.07a43,43,0,0,0,35.26-67.6c-30-.18-40.35-2.28-56.8,27-4.37,7.79-8.74,15.45-13.05,23.1A42.93,42.93,0,0,0,81.35,106.07Z"/><path class="cls-3" d="M159.35,63.07a35,35,0,0,0,32.57-47.81C158.89,8.94,167,23,132,32.59l-6.74,3.27A35,35,0,0,0,159.35,63.07Z"/><circle class="cls-3" cx="152.01" cy="103.15" r="28.32"/><path class="cls-3" d="M38.35,164.05a28.31,28.31,0,0,0-15.67-25.33c-4.51,16.82-3.5,32.91,4.42,47.93A28.27,28.27,0,0,0,38.35,164.05Z"/><circle class="cls-3" cx="89.98" cy="146.59" r="34.77"/><path class="cls-3" d="M53.62,192.37a22.71,22.71,0,0,0-17.19,7.84,97.25,97.25,0,0,0,11,10.83,85.62,85.62,0,0,0,26.22,15,22.78,22.78,0,0,0-20-33.63Z"/><path class="cls-3" d="M263.48,174.34A22.77,22.77,0,0,0,257.11,219l2-.68a227.78,227.78,0,0,0,23.29-8.56,22.77,22.77,0,0,0-19-35.4Z"/><path class="cls-3" d="M338.22,28.07A22.78,22.78,0,0,0,360.63,9.36c-1.83-.81-3.61-1.57-5.32-2.3-12.45-5.36-25.76-7.3-39.25-7a22.77,22.77,0,0,0,22.16,28Z"/><circle class="cls-3" cx="206.28" cy="98.4" r="15.1"/><circle class="cls-3" cx="315.9" cy="137.8" r="15.1"/><path class="cls-3" d="M311.42,181.36a15,15,0,0,0,1.71,7c7.11-5.83,14.75-12.31,22.23-19.2a15.08,15.08,0,0,0-23.94,12.23Z"/><path class="cls-3" d="M221.2,198.77a48.75,48.75,0,1,0-87.5,29.57,61.16,61.16,0,0,1,10.91,2.54,153.08,153.08,0,0,0,53.86,7.17c1.05,0,2.1-.12,3.14-.21A48.68,48.68,0,0,0,221.2,198.77Z"/><path class="cls-3" d="M254.94,88.11A48.75,48.75,0,0,0,287.89,3.43a273.57,273.57,0,0,0-34.89,10c-20,7.06-27.56,8.87-42.54,5.94a48.75,48.75,0,0,0,44.48,68.7Z"/><circle class="cls-3" cx="255.65" cy="132.09" r="34.25"/><path class="cls-3" d="M356.16,40.58A44.74,44.74,0,1,0,371,127.52a66.44,66.44,0,0,0,6.41-14.7c4-14.06,11.71-35.88,14.17-54.81A44.65,44.65,0,0,0,356.16,40.58Z"/><path class="cls-4" d="M111.38,106.07a7,7,0,0,1,3.07,1.15,17.32,17.32,0,0,1,3.61,2.76,12.4,12.4,0,0,1,2.46,3.38,2.3,2.3,0,0,1-.23,2.84,202.71,202.71,0,0,0-16.43,19.12Q95.71,146,88.49,156.6q4,.31,7.29.46a29.67,29.67,0,0,0,5.45-.15q5.22-8,11.21-16.13t11.67-15.13q5.68-7,10.52-12.21a43.35,43.35,0,0,1,8.06-7.22q.77-.46,2.69.54a14.8,14.8,0,0,1,3.61,2.69,13.26,13.26,0,0,1,2.61,3.61,2.53,2.53,0,0,1-.31,3.15q-6.3,6.3-12.59,14t-11.9,15.44q-5.61,7.76-10.21,14.9t-7.53,12.59a45.19,45.19,0,0,0-3.76,8.52q-.85,3.07,1.15,2.61,2.92-.77,1.84.92a21.15,21.15,0,0,1-3.76,4.07,51.45,51.45,0,0,1-5.84,4.45q-3.15,2.07-4.22,2.07a8.21,8.21,0,0,1-3.38-.85,18.36,18.36,0,0,1-3.38-2,16.09,16.09,0,0,1-2.53-2.3q-1-1.15-1-1.61,0-2.92,3.92-10.29t10.06-16.9l-14,1.23q-3.84,5.68-7.07,10.83l-5.76,9.21q-2.53,4.07-4.22,6.91t-2.46,3.92a2.8,2.8,0,0,1-2.76,1.23,10.74,10.74,0,0,1-3.76-1.07,13.11,13.11,0,0,1-3.38-2.3A3.9,3.9,0,0,1,53.32,189q0-2.15,3.61-9t9.14-15.9q-3.54.31-6.07.38a23.61,23.61,0,0,1-3.61-.08q-1.69,0-3.61-2.38a22.14,22.14,0,0,1-3.07-5,8.85,8.85,0,0,1-.92-4.53q.23-1.92,3-1.15a84.61,84.61,0,0,0,8.6,1.84q5.37.92,11.52,1.69,3.53-5.53,7.37-11.06t7.6-10.67q3.76-5.14,7.22-9.68a93.7,93.7,0,0,1,6.53-7.76c.71-.82,1-1.38.85-1.69a1.23,1.23,0,0,0-1.07-.54c-.56-.05-1.15-.08-1.77-.08s-1-.15-1.07-.46.25-.85,1.07-1.61a18.48,18.48,0,0,1,3.15-2.3,25.78,25.78,0,0,1,4.45-2.07A15,15,0,0,1,111.38,106.07Z"/><path class="cls-4" d="M148.85,134.64a10.79,10.79,0,0,1,5.61-.08,25.6,25.6,0,0,1,6.22,2.15,18.8,18.8,0,0,1,4.91,3.46q2,2,1.84,3.84-.16,2.3-2.61,6.91a66.52,66.52,0,0,1-6.22,9.45,74.32,74.32,0,0,1-8.06,8.83q-4.3,4-8.14,4.91a7,7,0,0,1-5.15-.85,34.07,34.07,0,0,1-4.84-3.15,45.9,45.9,0,0,0-4.76,12.52q-.92,5.15,3.07,5.45a9.39,9.39,0,0,0,3.3-.85,43,43,0,0,0,4.68-2.3q2.61-1.46,5.61-3.46t6.07-4.15q2-1.53,2.53-1.07t-1,2.3a56,56,0,0,1-5.45,5.61A64.4,64.4,0,0,1,140.4,189a41.51,41.51,0,0,1-6,3.53,14.7,14.7,0,0,1-4.91,1.54,12.64,12.64,0,0,1-3.69-.31,19.66,19.66,0,0,1-4.46-1.46,17.92,17.92,0,0,1-3.84-2.38,6.05,6.05,0,0,1-2.15-3.07,20.94,20.94,0,0,1,0-9.45A50.73,50.73,0,0,1,118.82,167a66.24,66.24,0,0,1,6-10.52,85.12,85.12,0,0,1,7.68-9.6,66.24,66.24,0,0,1,8.29-7.6A30.58,30.58,0,0,1,148.85,134.64Zm-14.75,32.87q1.84-.15,5-2.38a59.76,59.76,0,0,0,6.68-5.61,88.52,88.52,0,0,0,6.91-7.45,58.49,58.49,0,0,0,5.53-7.76c.62-1.12.87-1.79.77-2s-.82.1-2.15.92a70.61,70.61,0,0,0-5.84,4.68q-3.22,2.84-6.37,6.22T138.72,161A60,60,0,0,0,134.11,167.51Z"/><path class="cls-4" d="M187.25,134.18a8.93,8.93,0,0,1,2.92.69,22.59,22.59,0,0,1,3.53,1.69,10.4,10.4,0,0,1,2.61,2.07q.92,1.08,0,1.84-1.69,1.69-5,5.07t-7.45,8.37q-4.15,5-8.76,11.21t-9.21,13.44q5.07-6.91,11.21-14.05t12.06-13.29q5.91-6.14,10.9-10.6a49.12,49.12,0,0,1,7.76-6,7.58,7.58,0,0,1,2.92-.54,13.31,13.31,0,0,1,4.15.54,12.21,12.21,0,0,1,4,2,6.59,6.59,0,0,1,2.46,3.53q.15.62-1.23,2.46a52.49,52.49,0,0,1-3.61,4.22q-2.23,2.38-4.84,5t-4.76,4.91q-2.15,2.3-3.53,3.84c-.92,1-1.28,1.64-1.07,1.84s.51,0,1.23-.23,1.43-.49,2.15-.69a2.94,2.94,0,0,1,1.54-.15q.46.15-.61,1.54a34.75,34.75,0,0,1-3,3.53q-1.77,1.84-3.53,3.38a23.51,23.51,0,0,1-3.46,2.53,6,6,0,0,1-2.92,1,6.05,6.05,0,0,1-2.84-.77,16,16,0,0,1-2.76-1.84,9.53,9.53,0,0,1-2.07-2.3,4.38,4.38,0,0,1-.77-2.3,8.07,8.07,0,0,1,1.61-3.53q1.61-2.46,3.69-5.22t4.22-5.53a44.64,44.64,0,0,0,3.23-4.61q-4.3,4-9.52,9.68T178,168.82q-5.22,6.22-9.91,12.29a124.83,124.83,0,0,0-7.6,10.83l-.61,1.23a1.67,1.67,0,0,1-2.23.69,8.22,8.22,0,0,1-2.92-2,19.77,19.77,0,0,1-2.61-3.23,5.74,5.74,0,0,1-1.15-2.84q0-2.3,2.3-7a118.12,118.12,0,0,1,5.91-10.44q3.61-5.76,8-11.83t8.37-11.06a90.61,90.61,0,0,1,7.22-8.14Q186,134.18,187.25,134.18Z"/><path class="cls-4" d="M255.44,147.08q.46,2.76-1.15,7.29a61.93,61.93,0,0,1-4.53,9.68,102.46,102.46,0,0,1-6.91,10.52,99.47,99.47,0,0,1-8.22,9.75,61.48,61.48,0,0,1-8.29,7.3A17.26,17.26,0,0,1,219,195a12,12,0,0,1-4.22-.69,32.71,32.71,0,0,1-5.68-2.3,33.59,33.59,0,0,1-5.15-3.23q-2.3-1.76-2.61-3.3a17.5,17.5,0,0,1,.77-8,60.81,60.81,0,0,1,4.07-10.14,101.55,101.55,0,0,1,6.37-10.9,88.31,88.31,0,0,1,7.76-10.06,58.25,58.25,0,0,1,8.14-7.6,20.34,20.34,0,0,1,7.45-3.84,11.56,11.56,0,0,1,5.61.54,28.26,28.26,0,0,1,6.07,2.76,24.17,24.17,0,0,1,5.15,4.15A9.9,9.9,0,0,1,255.44,147.08Zm-9.37-5.22q-1.23-.61-4.38,2.3a77.27,77.27,0,0,0-7.14,7.83q-4,4.92-8.22,10.9t-7.53,11.44a85.42,85.42,0,0,0-5.07,9.45q-1.77,4-.69,4.76.92.77,4.07-2.23a87.82,87.82,0,0,0,7.22-8q4.07-5,8.37-11.06t7.68-11.52a74.77,74.77,0,0,0,5.07-9.37Q247.14,142.47,246.07,141.86Z"/><path class="cls-5" d="M116.38,109.07a7,7,0,0,1,3.07,1.15,17.32,17.32,0,0,1,3.61,2.76,12.4,12.4,0,0,1,2.46,3.38,2.3,2.3,0,0,1-.23,2.84,202.71,202.71,0,0,0-16.43,19.12Q100.71,149,93.49,159.61q4,.31,7.29.46a29.67,29.67,0,0,0,5.45-.15q5.22-8,11.21-16.13t11.67-15.13q5.68-7,10.52-12.21a43.35,43.35,0,0,1,8.06-7.22q.77-.46,2.69.54a14.8,14.8,0,0,1,3.61,2.69,13.26,13.26,0,0,1,2.61,3.61,2.53,2.53,0,0,1-.31,3.15q-6.3,6.3-12.59,14t-11.9,15.44q-5.61,7.76-10.21,14.9t-7.53,12.59a45.19,45.19,0,0,0-3.76,8.52q-.85,3.07,1.15,2.61,2.92-.77,1.84.92a21.15,21.15,0,0,1-3.76,4.07,51.45,51.45,0,0,1-5.84,4.45q-3.15,2.07-4.22,2.07a8.21,8.21,0,0,1-3.38-.85,18.36,18.36,0,0,1-3.38-2,16.09,16.09,0,0,1-2.53-2.3q-1-1.15-1-1.61,0-2.92,3.92-10.29t10.06-16.9l-14,1.23q-3.84,5.68-7.07,10.83l-5.76,9.21q-2.53,4.07-4.22,6.91t-2.46,3.92a2.8,2.8,0,0,1-2.76,1.23,10.74,10.74,0,0,1-3.76-1.07,13.11,13.11,0,0,1-3.38-2.3A3.9,3.9,0,0,1,58.32,192q0-2.15,3.61-9t9.14-15.9q-3.54.31-6.07.38a23.61,23.61,0,0,1-3.61-.08q-1.69,0-3.61-2.38a22.14,22.14,0,0,1-3.07-5,8.85,8.85,0,0,1-.92-4.53q.23-1.92,3-1.15a84.61,84.61,0,0,0,8.6,1.84q5.37.92,11.52,1.69,3.53-5.53,7.37-11.06t7.6-10.67q3.76-5.14,7.22-9.68a93.7,93.7,0,0,1,6.53-7.76c.71-.82,1-1.38.85-1.69a1.23,1.23,0,0,0-1.07-.54c-.56-.05-1.15-.08-1.77-.08s-1-.15-1.07-.46.25-.85,1.07-1.61a18.48,18.48,0,0,1,3.15-2.3,25.78,25.78,0,0,1,4.45-2.07A15,15,0,0,1,116.38,109.07Z"/><path class="cls-5" d="M153.85,137.64a10.79,10.79,0,0,1,5.61-.08,25.6,25.6,0,0,1,6.22,2.15,18.8,18.8,0,0,1,4.91,3.46q2,2,1.84,3.84-.16,2.3-2.61,6.91a66.52,66.52,0,0,1-6.22,9.45,74.32,74.32,0,0,1-8.06,8.83q-4.3,4-8.14,4.91a7,7,0,0,1-5.15-.85,34.07,34.07,0,0,1-4.84-3.15,45.9,45.9,0,0,0-4.76,12.52q-.92,5.15,3.07,5.45a9.39,9.39,0,0,0,3.3-.85,43,43,0,0,0,4.68-2.3q2.61-1.46,5.61-3.46t6.07-4.15q2-1.53,2.53-1.07t-1,2.3a56,56,0,0,1-5.45,5.61,64.4,64.4,0,0,1-6.07,4.84,41.51,41.51,0,0,1-6,3.53,14.7,14.7,0,0,1-4.91,1.54,12.64,12.64,0,0,1-3.69-.31,19.66,19.66,0,0,1-4.46-1.46,17.92,17.92,0,0,1-3.84-2.38,6.05,6.05,0,0,1-2.15-3.07,20.94,20.94,0,0,1,0-9.45A50.73,50.73,0,0,1,123.83,170a66.24,66.24,0,0,1,6-10.52,85.12,85.12,0,0,1,7.68-9.6,66.24,66.24,0,0,1,8.29-7.6A30.51,30.51,0,0,1,153.85,137.64Zm-14.75,32.87q1.84-.15,5-2.38a59.76,59.76,0,0,0,6.68-5.61,88.52,88.52,0,0,0,6.91-7.45,58.49,58.49,0,0,0,5.53-7.76c.62-1.12.87-1.79.77-2s-.82.1-2.15.92a70.61,70.61,0,0,0-5.84,4.68q-3.22,2.84-6.37,6.22T143.72,164A60,60,0,0,0,139.11,170.51Z"/><path class="cls-5" d="M192.25,137.18a8.93,8.93,0,0,1,2.92.69,22.59,22.59,0,0,1,3.53,1.69,10.4,10.4,0,0,1,2.61,2.07q.92,1.08,0,1.84-1.69,1.69-5,5.07t-7.45,8.37q-4.15,5-8.76,11.21t-9.21,13.44q5.07-6.91,11.21-14.05t12.06-13.29q5.91-6.14,10.9-10.6a49.12,49.12,0,0,1,7.76-6,7.58,7.58,0,0,1,2.92-.54,13.31,13.31,0,0,1,4.15.54,12.21,12.21,0,0,1,4,2,6.59,6.59,0,0,1,2.46,3.53q.15.62-1.23,2.46a52.49,52.49,0,0,1-3.61,4.22q-2.23,2.38-4.84,5t-4.76,4.91q-2.15,2.3-3.53,3.84c-.92,1-1.28,1.64-1.07,1.84s.51,0,1.23-.23,1.43-.49,2.15-.69a2.94,2.94,0,0,1,1.54-.15q.46.15-.61,1.54a34.75,34.75,0,0,1-3,3.53q-1.77,1.84-3.53,3.38a23.51,23.51,0,0,1-3.46,2.53,6,6,0,0,1-2.92,1,6.05,6.05,0,0,1-2.84-.77,16,16,0,0,1-2.76-1.84,9.53,9.53,0,0,1-2.07-2.3,4.38,4.38,0,0,1-.77-2.3,8.07,8.07,0,0,1,1.61-3.53q1.61-2.46,3.69-5.22t4.22-5.53a44.64,44.64,0,0,0,3.23-4.61q-4.3,4-9.52,9.68T183,171.82q-5.22,6.22-9.91,12.29a124.83,124.83,0,0,0-7.6,10.83l-.61,1.23a1.67,1.67,0,0,1-2.23.69,8.22,8.22,0,0,1-2.92-2,19.77,19.77,0,0,1-2.61-3.23,5.74,5.74,0,0,1-1.15-2.84q0-2.3,2.3-7a118.12,118.12,0,0,1,5.91-10.44q3.61-5.76,8-11.83t8.37-11.06a90.61,90.61,0,0,1,7.22-8.14Q191,137.18,192.25,137.18Z"/><path class="cls-5" d="M260.44,150.08q.46,2.76-1.15,7.29a61.93,61.93,0,0,1-4.53,9.68,102.46,102.46,0,0,1-6.91,10.52,99.47,99.47,0,0,1-8.22,9.75,61.48,61.48,0,0,1-8.29,7.3A17.26,17.26,0,0,1,224,198a12,12,0,0,1-4.22-.69,32.71,32.71,0,0,1-5.68-2.3,33.59,33.59,0,0,1-5.15-3.23q-2.3-1.76-2.61-3.3a17.5,17.5,0,0,1,.77-8,60.81,60.81,0,0,1,4.07-10.14,101.55,101.55,0,0,1,6.37-10.9,88.31,88.31,0,0,1,7.76-10.06,58.25,58.25,0,0,1,8.14-7.6,20.34,20.34,0,0,1,7.45-3.84,11.56,11.56,0,0,1,5.61.54,28.26,28.26,0,0,1,6.07,2.76,24.17,24.17,0,0,1,5.15,4.15A9.9,9.9,0,0,1,260.44,150.08Zm-9.37-5.22q-1.23-.61-4.38,2.3a77.27,77.27,0,0,0-7.14,7.83q-4,4.92-8.22,10.9t-7.53,11.44a85.42,85.42,0,0,0-5.07,9.45q-1.77,4-.69,4.76.92.77,4.07-2.23a87.82,87.82,0,0,0,7.22-8q4.07-5,8.37-11.06t7.68-11.52a74.77,74.77,0,0,0,5.07-9.37Q252.15,145.47,251.07,144.86Z"/><text class="cls-6" transform="translate(124.35 130.16)">Yolo</text><path class="cls-7" d="M279.74,168.85a12.21,12.21,0,0,1,4.25.61,20.89,20.89,0,0,1,5.06,2.18,8.85,8.85,0,0,1,3.37,3.32q1,1.91-.81,3.8-2.06,2.11-4.58,4.74t-5.13,4.94q-2.62,2.31-4.88,4.07a8.08,8.08,0,0,1-3.8,1.93,17.26,17.26,0,0,1-4.69-.41,19.45,19.45,0,0,1-4.64-1.61,11,11,0,0,1-3.51-2.66A5.27,5.27,0,0,1,259.1,186q.07-1.75,2.71-4.6a54.24,54.24,0,0,1,6-5.56,55.43,55.43,0,0,1,6.76-4.65A19.62,19.62,0,0,1,279.74,168.85ZM290,150.65A60.26,60.26,0,0,1,295.43,140q4.23-6.94,10.15-15.25t13.08-17.1q7.15-8.8,13.92-16.19a143.17,143.17,0,0,1,12.67-12.41q5.9-5,9.45-6a10.94,10.94,0,0,1,5,.64,44.07,44.07,0,0,1,6.69,2.57,21.87,21.87,0,0,1,5.13,3.28q1.9,1.72.77,2.55-3.39,2.49-9.18,7.4t-12.63,11.53q-6.84,6.62-14.38,14.2t-14.53,15.18q-7,7.6-13.09,14.8T298.42,158a3.65,3.65,0,0,1-2.91,1.52,5,5,0,0,1-3.24-1.12,7.27,7.27,0,0,1-2.28-3.16A6.94,6.94,0,0,1,290,150.65Z"/><path class="cls-5" d="M218.13,44.46q1.23-.77,3.69.08a15.76,15.76,0,0,1,4.61,2.53,10.82,10.82,0,0,1,3.15,3.76,2.9,2.9,0,0,1-.54,3.61q-6.15,6.3-12.44,14t-11.9,15.44q-5.61,7.76-10.21,14.9t-7.53,12.59a45.19,45.19,0,0,0-3.76,8.52q-.85,3.07,1.15,2.61,2.92-.77,1.77.92a23.94,23.94,0,0,1-3.84,4.07,55.32,55.32,0,0,1-5.76,4.45q-3.07,2.07-4.15,2.07a8,8,0,0,1-3.46-.85,19.45,19.45,0,0,1-3.3-2,16.09,16.09,0,0,1-2.53-2.3q-1-1.15-1-1.61,0-2,1.84-6.37A109.94,109.94,0,0,1,169,110.66q3.22-5.83,7.45-12.67t9-13.75q-3.07,2.76-6.6,5.84t-6.68,5.76a69.6,69.6,0,0,1-5.61,4.38q-2.46,1.69-3.38,1.69a6.05,6.05,0,0,1-2.84-.77,12.16,12.16,0,0,1-2.69-1.92,11.94,11.94,0,0,1-2-2.38,6,6,0,0,1-.92-2.3,26.38,26.38,0,0,1,1.84-11.37A72.61,72.61,0,0,1,163.07,70a115.72,115.72,0,0,1,10-13.67q5.76-6.83,12.21-13.13,1.07-1.07,3.3-.23a18,18,0,0,1,4.38,2.46A13.71,13.71,0,0,1,196.32,49q1.23,1.92.15,3.15-8.91,10.6-14.59,18T173,82.24A41.08,41.08,0,0,0,169,89.46q-.92,2.46-.15,3.07.15.31,3.23-2t7.14-5.68q4.07-3.38,8.29-7.07t6.68-6q7.06-9.83,13.52-17.28T218.13,44.46Z"/><path class="cls-5" d="M248.85,85.32q.46,2.76-1.15,7.29a61.93,61.93,0,0,1-4.53,9.68,102.47,102.47,0,0,1-6.91,10.52,99.47,99.47,0,0,1-8.22,9.75,61.48,61.48,0,0,1-8.29,7.3,17.26,17.26,0,0,1-7.3,3.38,12,12,0,0,1-4.22-.69,32.71,32.71,0,0,1-5.68-2.3,33.59,33.59,0,0,1-5.15-3.23q-2.3-1.76-2.61-3.3a17.5,17.5,0,0,1,.77-8,60.81,60.81,0,0,1,4.07-10.14A101.72,101.72,0,0,1,206,94.68a88.31,88.31,0,0,1,7.76-10.06,58.25,58.25,0,0,1,8.14-7.6,20.34,20.34,0,0,1,7.45-3.84,11.56,11.56,0,0,1,5.61.54A28.26,28.26,0,0,1,241,76.48a24.17,24.17,0,0,1,5.15,4.15A9.89,9.89,0,0,1,248.85,85.32Zm-9.37-5.22q-1.23-.61-4.38,2.3A77.27,77.27,0,0,0,228,90.23q-4,4.92-8.22,10.9t-7.53,11.44a85.41,85.41,0,0,0-5.07,9.45q-1.77,4-.69,4.76.92.77,4.07-2.23a87.82,87.82,0,0,0,7.22-8q4.07-5,8.37-11.06T233.8,94a74.77,74.77,0,0,0,5.07-9.37Q240.55,80.71,239.48,80.09Z"/><path class="cls-5" d="M295.08,39.39a8.7,8.7,0,0,1,3.07.38,13.85,13.85,0,0,1,4,1.69A10,10,0,0,1,305,44a2,2,0,0,1-.23,2.76Q298.3,54,291.7,62.12T279,78.4Q273,86.55,267.74,94.07t-8.91,13.44q-3.69,5.91-5.61,9.6t-1.46,4.15c.1.1.54,0,1.31-.31a23.09,23.09,0,0,1,2.23-.77,3,3,0,0,1,1.54-.15c.31.1.1.61-.61,1.54a41.39,41.39,0,0,1-3,3.61,44.14,44.14,0,0,1-3.53,3.46,23.51,23.51,0,0,1-3.46,2.53,6,6,0,0,1-2.92,1,6.51,6.51,0,0,1-2.92-.77,12.9,12.9,0,0,1-2.76-1.84,9.65,9.65,0,0,1-2-2.38,4.79,4.79,0,0,1-.77-2.38q0-2.15,2.3-7t6.07-11.14q3.76-6.3,8.68-13.59T262.13,78.4q5.3-7.37,10.6-14.28t9.83-12.29q4.53-5.37,7.83-8.75T295.08,39.39Z"/><path class="cls-5" d="M315.35,85.32q.46,2.76-1.15,7.29a61.93,61.93,0,0,1-4.53,9.68,102.47,102.47,0,0,1-6.91,10.52,99.47,99.47,0,0,1-8.22,9.75,61.48,61.48,0,0,1-8.29,7.3,17.26,17.26,0,0,1-7.3,3.38,12,12,0,0,1-4.22-.69,32.71,32.71,0,0,1-5.68-2.3,33.59,33.59,0,0,1-5.15-3.23q-2.3-1.76-2.61-3.3a17.5,17.5,0,0,1,.77-8,60.81,60.81,0,0,1,4.07-10.14,101.72,101.72,0,0,1,6.37-10.9,88.31,88.31,0,0,1,7.76-10.06,58.24,58.24,0,0,1,8.14-7.6,20.34,20.34,0,0,1,7.45-3.84,11.56,11.56,0,0,1,5.61.54,28.26,28.26,0,0,1,6.07,2.76,24.17,24.17,0,0,1,5.15,4.15A9.9,9.9,0,0,1,315.35,85.32ZM306,80.09q-1.23-.61-4.38,2.3a77.27,77.27,0,0,0-7.14,7.83q-4,4.92-8.22,10.9t-7.53,11.44a85.41,85.41,0,0,0-5.07,9.45q-1.77,4-.69,4.76.92.77,4.07-2.23a87.82,87.82,0,0,0,7.22-8q4.07-5,8.37-11.06T300.3,94a74.77,74.77,0,0,0,5.07-9.37Q307.05,80.71,306,80.09Z"/><path class="cls-4" d="M284.12,169a12.2,12.2,0,0,1,4.25.61,20.92,20.92,0,0,1,5.06,2.18,8.84,8.84,0,0,1,3.37,3.31q1,1.91-.81,3.8-2.06,2.11-4.58,4.74t-5.13,4.94q-2.61,2.31-4.88,4.07a8.08,8.08,0,0,1-3.8,1.93,17.22,17.22,0,0,1-4.69-.41,19.51,19.51,0,0,1-4.64-1.61,11,11,0,0,1-3.51-2.66,5.27,5.27,0,0,1-1.27-3.78q.07-1.75,2.71-4.6a54.34,54.34,0,0,1,6-5.56A55.43,55.43,0,0,1,279,171.3,19.61,19.61,0,0,1,284.12,169Zm10.22-18.2a60.21,60.21,0,0,1,5.47-10.62Q304,133.22,310,124.91T323,107.81Q330.2,99,337,91.62a143.15,143.15,0,0,1,12.67-12.41q5.9-5,9.45-6a10.94,10.94,0,0,1,5,.64,44,44,0,0,1,6.69,2.57,21.78,21.78,0,0,1,5.13,3.28q1.9,1.72.77,2.55-3.39,2.49-9.18,7.4t-12.63,11.53q-6.84,6.62-14.38,14.2T326,130.61q-7,7.6-13.09,14.8t-10.05,12.73a3.65,3.65,0,0,1-2.91,1.52,5,5,0,0,1-3.24-1.12,7.27,7.27,0,0,1-2.28-3.16A7,7,0,0,1,294.34,150.79Z"/></g></g></svg>