<svg xmlns="http://www.w3.org/2000/svg" viewBox="0 0 328.35 161.41"><defs><style>.cls-1{fill:#ff1ae9;}.cls-2{fill:#fff;}.cls-3{isolation:isolate;}.cls-4{fill:#0921f3;}</style></defs><title>Asset 1</title><g id="Layer_2" data-name="Layer 2"><g id="Calque_1" data-name="Calque 1"><path class="cls-1" d="M62.63,68.71a7,7,0,0,1,3.07,1.15,17.35,17.35,0,0,1,3.61,2.76A12.4,12.4,0,0,1,71.77,76a2.3,2.3,0,0,1-.23,2.84A202.86,202.86,0,0,0,55.1,98Q47,108.65,39.74,119.25q4,.31,7.29.46a29.58,29.58,0,0,0,5.45-.15q5.22-8,11.21-16.13T75.38,88.3q5.68-7,10.52-12.21A43.31,43.31,0,0,1,94,68.87q.77-.46,2.69.54a14.8,14.8,0,0,1,3.61,2.69,13.24,13.24,0,0,1,2.61,3.61,2.53,2.53,0,0,1-.31,3.15q-6.3,6.3-12.59,14t-11.9,15.44q-5.61,7.76-10.21,14.9t-7.53,12.6a45.19,45.19,0,0,0-3.76,8.52q-.85,3.07,1.15,2.61,2.92-.77,1.84.92a21.21,21.21,0,0,1-3.76,4.07A51.56,51.56,0,0,1,50,156.34q-3.15,2.07-4.22,2.07a8.21,8.21,0,0,1-3.38-.85,18.3,18.3,0,0,1-3.38-2,16,16,0,0,1-2.53-2.3q-1-1.15-1-1.61,0-2.92,3.92-10.29t10.06-16.89l-14,1.23q-3.84,5.68-7.07,10.83l-5.76,9.21q-2.53,4.07-4.22,6.91t-2.46,3.92a2.8,2.8,0,0,1-2.77,1.23,10.76,10.76,0,0,1-3.76-1.07A13.11,13.11,0,0,1,6,154.42a3.9,3.9,0,0,1-1.46-2.76q0-2.15,3.61-9t9.14-15.9q-3.54.31-6.07.38a23.78,23.78,0,0,1-3.61-.08q-1.69,0-3.61-2.38a22.16,22.16,0,0,1-3.07-5A8.85,8.85,0,0,1,0,115.18q.23-1.92,3-1.15a84.6,84.6,0,0,0,8.6,1.84q5.37.92,11.52,1.69,3.53-5.53,7.37-11.06t7.6-10.67q3.76-5.14,7.22-9.68a93.91,93.91,0,0,1,6.53-7.76c.72-.82,1-1.38.84-1.69a1.23,1.23,0,0,0-1.08-.54c-.56-.05-1.15-.08-1.77-.08s-1-.15-1.08-.46.25-.85,1.08-1.61A18.53,18.53,0,0,1,53,71.71a25.63,25.63,0,0,1,4.45-2.07A14.94,14.94,0,0,1,62.63,68.71Z"/><path class="cls-1" d="M100.1,97.28a10.77,10.77,0,0,1,5.61-.08,25.64,25.64,0,0,1,6.22,2.15,18.8,18.8,0,0,1,4.91,3.46q2,2,1.84,3.84-.16,2.3-2.61,6.91a66.58,66.58,0,0,1-6.22,9.45,74.31,74.31,0,0,1-8.06,8.83q-4.3,4-8.14,4.92a7,7,0,0,1-5.15-.85,33.9,33.9,0,0,1-4.84-3.15,45.92,45.92,0,0,0-4.76,12.52Q78,150.43,82,150.73a9.39,9.39,0,0,0,3.3-.85,42.82,42.82,0,0,0,4.68-2.3q2.61-1.46,5.61-3.46t6.07-4.15c1.33-1,2.17-1.38,2.53-1.07s0,1.07-1,2.3a56,56,0,0,1-5.45,5.61,64.57,64.57,0,0,1-6.07,4.84,41.41,41.41,0,0,1-6,3.53,14.7,14.7,0,0,1-4.91,1.54,12.64,12.64,0,0,1-3.69-.31A19.71,19.71,0,0,1,72.61,155a17.92,17.92,0,0,1-3.84-2.38,6.05,6.05,0,0,1-2.15-3.07,20.94,20.94,0,0,1,0-9.45,50.73,50.73,0,0,1,3.46-10.44,66.29,66.29,0,0,1,6-10.52,85.22,85.22,0,0,1,7.68-9.6,66.24,66.24,0,0,1,8.29-7.6A30.63,30.63,0,0,1,100.1,97.28ZM85.36,130.15q1.84-.15,5-2.38A59.76,59.76,0,0,0,97,122.16a88.21,88.21,0,0,0,6.91-7.45,58.42,58.42,0,0,0,5.53-7.76c.61-1.12.87-1.79.77-2s-.82.1-2.15.92a70.61,70.61,0,0,0-5.84,4.68q-3.23,2.84-6.37,6.22T90,123.62A59.67,59.67,0,0,0,85.36,130.15Z"/><path class="cls-1" d="M138.5,96.82a8.93,8.93,0,0,1,2.92.69A22.5,22.5,0,0,1,145,99.2a10.38,10.38,0,0,1,2.61,2.07q.92,1.08,0,1.84-1.69,1.69-5,5.07t-7.45,8.37q-4.15,5-8.76,11.21t-9.22,13.44q5.07-6.91,11.21-14.05t12.06-13.29q5.91-6.14,10.91-10.6a49.05,49.05,0,0,1,7.76-6,7.56,7.56,0,0,1,2.92-.54,13.31,13.31,0,0,1,4.15.54,12.19,12.19,0,0,1,4,2,6.6,6.6,0,0,1,2.46,3.53q.15.62-1.23,2.46a52.48,52.48,0,0,1-3.61,4.22q-2.23,2.38-4.84,5t-4.76,4.92q-2.15,2.3-3.53,3.84t-1.08,1.84q.15.16,1.23-.23t2.15-.69a2.93,2.93,0,0,1,1.54-.15q.46.16-.61,1.54a34.53,34.53,0,0,1-3,3.53q-1.77,1.84-3.53,3.38a23.59,23.59,0,0,1-3.46,2.53,6,6,0,0,1-2.92,1,6.06,6.06,0,0,1-2.84-.77,16,16,0,0,1-2.77-1.84,9.52,9.52,0,0,1-2.07-2.3,4.38,4.38,0,0,1-.77-2.3,8.06,8.06,0,0,1,1.61-3.53q1.61-2.46,3.69-5.22t4.22-5.53a44.54,44.54,0,0,0,3.23-4.61q-4.3,4-9.52,9.68t-10.44,11.9q-5.22,6.22-9.91,12.29a124.83,124.83,0,0,0-7.6,10.83l-.61,1.23a1.67,1.67,0,0,1-2.23.69,8.22,8.22,0,0,1-2.92-2,19.83,19.83,0,0,1-2.61-3.23,5.74,5.74,0,0,1-1.15-2.84q0-2.3,2.3-7A118.11,118.11,0,0,1,110.47,131q3.61-5.76,8-11.83t8.37-11.06A90.79,90.79,0,0,1,134,100Q137.27,96.82,138.5,96.82Z"/><path class="cls-1" d="M206.69,109.72q.46,2.76-1.15,7.3A62,62,0,0,1,201,126.7a102.47,102.47,0,0,1-6.91,10.52,99.46,99.46,0,0,1-8.22,9.75,61.42,61.42,0,0,1-8.29,7.3,17.29,17.29,0,0,1-7.3,3.38,12,12,0,0,1-4.22-.69,32.72,32.72,0,0,1-5.68-2.3,33.59,33.59,0,0,1-5.15-3.23q-2.3-1.76-2.61-3.3a17.49,17.49,0,0,1,.77-8A60.81,60.81,0,0,1,157.47,130a101.44,101.44,0,0,1,6.37-10.9A88.31,88.31,0,0,1,171.6,109a58.2,58.2,0,0,1,8.14-7.6,20.34,20.34,0,0,1,7.45-3.84,11.57,11.57,0,0,1,5.61.54,28.31,28.31,0,0,1,6.07,2.77A24.2,24.2,0,0,1,204,105,9.91,9.91,0,0,1,206.69,109.72Zm-9.37-5.22q-1.23-.61-4.38,2.3a77.39,77.39,0,0,0-7.14,7.83q-4,4.92-8.22,10.9T170.06,137a85.32,85.32,0,0,0-5.07,9.45q-1.77,4-.69,4.76.92.77,4.07-2.23a88,88,0,0,0,7.22-8q4.07-5,8.37-11.06t7.68-11.52a74.91,74.91,0,0,0,5.07-9.37Q198.4,105.12,197.32,104.5Z"/><path class="cls-2" d="M67.63,71.72a7,7,0,0,1,3.07,1.15,17.35,17.35,0,0,1,3.61,2.77A12.4,12.4,0,0,1,76.77,79a2.3,2.3,0,0,1-.23,2.84A202.84,202.84,0,0,0,60.11,101Q52,111.65,44.75,122.25q4,.31,7.29.46a29.67,29.67,0,0,0,5.45-.15q5.22-8,11.21-16.13T80.38,91.3q5.68-7,10.52-12.21A43.35,43.35,0,0,1,99,71.87q.77-.46,2.69.54a14.78,14.78,0,0,1,3.61,2.69,13.23,13.23,0,0,1,2.61,3.61,2.53,2.53,0,0,1-.31,3.15q-6.3,6.3-12.59,14t-11.9,15.44q-5.61,7.76-10.21,14.9t-7.53,12.6a45.22,45.22,0,0,0-3.76,8.52q-.85,3.07,1.15,2.61,2.92-.77,1.84.92a21.19,21.19,0,0,1-3.76,4.07A51.57,51.57,0,0,1,55,159.34q-3.15,2.07-4.22,2.07a8.2,8.2,0,0,1-3.38-.85,18.36,18.36,0,0,1-3.38-2,16,16,0,0,1-2.53-2.3q-1-1.15-1-1.61,0-2.92,3.92-10.29t10.06-16.9l-14,1.23q-3.84,5.68-7.07,10.83l-5.76,9.21q-2.53,4.07-4.22,6.91t-2.46,3.92a2.8,2.8,0,0,1-2.77,1.23,10.81,10.81,0,0,1-3.76-1.07,13.11,13.11,0,0,1-3.38-2.3,3.9,3.9,0,0,1-1.46-2.77q0-2.15,3.61-9t9.14-15.9q-3.54.31-6.07.39a23.74,23.74,0,0,1-3.61-.08Q11,130.08,9,127.7a22.15,22.15,0,0,1-3.07-5A8.85,8.85,0,0,1,5,118.18q.23-1.92,3-1.15a84.57,84.57,0,0,0,8.6,1.84q5.37.92,11.52,1.69,3.53-5.53,7.37-11.06t7.6-10.67q3.76-5.14,7.22-9.68a93.88,93.88,0,0,1,6.53-7.76c.72-.82,1-1.38.84-1.69a1.23,1.23,0,0,0-1.08-.54c-.56-.05-1.15-.08-1.77-.08s-1-.15-1.08-.46.25-.85,1.08-1.61A18.48,18.48,0,0,1,58,74.71a25.7,25.7,0,0,1,4.45-2.07A15,15,0,0,1,67.63,71.72Z"/><path class="cls-2" d="M105.11,100.28a10.79,10.79,0,0,1,5.61-.08,25.64,25.64,0,0,1,6.22,2.15,18.85,18.85,0,0,1,4.91,3.46q2,2,1.84,3.84-.16,2.3-2.61,6.91a66.46,66.46,0,0,1-6.22,9.45,74.23,74.23,0,0,1-8.06,8.83q-4.3,4-8.14,4.92a7,7,0,0,1-5.15-.85,34.07,34.07,0,0,1-4.84-3.15,45.9,45.9,0,0,0-4.76,12.52Q83,153.43,87,153.73a9.37,9.37,0,0,0,3.3-.85,42.79,42.79,0,0,0,4.68-2.3q2.61-1.46,5.61-3.46t6.07-4.15c1.33-1,2.17-1.38,2.53-1.08s0,1.08-1,2.3a55.74,55.74,0,0,1-5.45,5.61,64.4,64.4,0,0,1-6.07,4.84,41.41,41.41,0,0,1-6,3.53,14.69,14.69,0,0,1-4.91,1.54,12.65,12.65,0,0,1-3.69-.31A19.61,19.61,0,0,1,77.61,158a17.88,17.88,0,0,1-3.84-2.38,6.06,6.06,0,0,1-2.15-3.07,20.94,20.94,0,0,1,0-9.45,50.72,50.72,0,0,1,3.46-10.44,66.25,66.25,0,0,1,6-10.52,85.22,85.22,0,0,1,7.68-9.6,66.23,66.23,0,0,1,8.29-7.6A30.6,30.6,0,0,1,105.11,100.28ZM90.36,133.15q1.84-.15,5-2.38a59.63,59.63,0,0,0,6.68-5.61,88.37,88.37,0,0,0,6.91-7.45,58.49,58.49,0,0,0,5.53-7.76c.61-1.13.87-1.79.77-2s-.82.1-2.15.92a70.43,70.43,0,0,0-5.84,4.69q-3.23,2.84-6.37,6.22T95,126.63A60.13,60.13,0,0,0,90.36,133.15Z"/><path class="cls-2" d="M143.5,99.82a8.93,8.93,0,0,1,2.92.69A22.5,22.5,0,0,1,150,102.2a10.42,10.42,0,0,1,2.61,2.07q.92,1.08,0,1.84-1.69,1.69-5,5.07t-7.45,8.37q-4.15,5-8.76,11.21t-9.22,13.44q5.07-6.91,11.21-14.05t12.06-13.29q5.91-6.14,10.91-10.6a49.05,49.05,0,0,1,7.76-6,7.56,7.56,0,0,1,2.92-.54,13.34,13.34,0,0,1,4.15.54,12.21,12.21,0,0,1,4,2,6.6,6.6,0,0,1,2.46,3.53q.15.62-1.23,2.46a52.31,52.31,0,0,1-3.61,4.22q-2.23,2.38-4.84,5t-4.76,4.92q-2.15,2.3-3.53,3.84c-.92,1-1.28,1.64-1.08,1.84s.51,0,1.23-.23,1.43-.48,2.15-.69a2.93,2.93,0,0,1,1.54-.15q.46.15-.61,1.54a34.75,34.75,0,0,1-3,3.53q-1.77,1.84-3.53,3.38a23.58,23.58,0,0,1-3.46,2.53,6,6,0,0,1-2.92,1,6.06,6.06,0,0,1-2.84-.77,16,16,0,0,1-2.77-1.84,9.53,9.53,0,0,1-2.07-2.3,4.38,4.38,0,0,1-.77-2.3,8.06,8.06,0,0,1,1.61-3.53q1.61-2.46,3.69-5.22t4.22-5.53a44.64,44.64,0,0,0,3.23-4.61q-4.3,4-9.52,9.68t-10.44,11.9q-5.22,6.22-9.91,12.29a124.53,124.53,0,0,0-7.6,10.83l-.61,1.23a1.67,1.67,0,0,1-2.23.69,8.23,8.23,0,0,1-2.92-2,19.82,19.82,0,0,1-2.61-3.23,5.74,5.74,0,0,1-1.15-2.84q0-2.3,2.3-7A118,118,0,0,1,115.47,134q3.61-5.76,8-11.83t8.37-11.06a90.76,90.76,0,0,1,7.22-8.14Q142.27,99.83,143.5,99.82Z"/><path class="cls-2" d="M211.69,112.72q.46,2.77-1.15,7.3A62,62,0,0,1,206,129.7a102.47,102.47,0,0,1-6.91,10.52,99.47,99.47,0,0,1-8.22,9.75,61.48,61.48,0,0,1-8.29,7.3,17.27,17.27,0,0,1-7.3,3.38,12,12,0,0,1-4.22-.69,32.72,32.72,0,0,1-5.68-2.3,33.59,33.59,0,0,1-5.15-3.23q-2.3-1.76-2.61-3.3a17.49,17.49,0,0,1,.77-8A60.79,60.79,0,0,1,162.47,133a101.54,101.54,0,0,1,6.37-10.9A88.43,88.43,0,0,1,176.6,112a58.24,58.24,0,0,1,8.14-7.6,20.34,20.34,0,0,1,7.45-3.84,11.56,11.56,0,0,1,5.61.54,28.3,28.3,0,0,1,6.07,2.77A24.2,24.2,0,0,1,209,108,9.89,9.89,0,0,1,211.69,112.72Zm-9.37-5.22q-1.23-.61-4.38,2.3a77.41,77.41,0,0,0-7.14,7.83q-4,4.92-8.22,10.9T175.06,140a85.32,85.32,0,0,0-5.07,9.45q-1.77,4-.69,4.76.92.77,4.07-2.23a87.81,87.81,0,0,0,7.22-8q4.07-5,8.37-11.06t7.68-11.52a74.84,74.84,0,0,0,5.07-9.37Q203.4,108.12,202.33,107.5Z"/><g class="cls-3"><path class="cls-1" d="M164.38,5.1q1.23-.77,3.69.08a15.78,15.78,0,0,1,4.61,2.54,10.82,10.82,0,0,1,3.15,3.76,2.9,2.9,0,0,1-.54,3.61q-6.15,6.3-12.44,14T150.94,44.5q-5.61,7.76-10.21,14.9T133.2,72a45.31,45.31,0,0,0-3.76,8.53q-.85,3.07,1.15,2.61,2.92-.77,1.77.92a23.92,23.92,0,0,1-3.84,4.07,55.44,55.44,0,0,1-5.76,4.46q-3.07,2.07-4.15,2.07a8,8,0,0,1-3.46-.84,19.54,19.54,0,0,1-3.3-2,16.21,16.21,0,0,1-2.53-2.3c-.67-.77-1-1.3-1-1.61q0-2,1.84-6.37a109.68,109.68,0,0,1,5.07-10.21q3.23-5.83,7.45-12.67t9-13.75q-3.07,2.76-6.6,5.84t-6.68,5.76a69.36,69.36,0,0,1-5.61,4.38q-2.46,1.69-3.38,1.69a6.06,6.06,0,0,1-2.84-.77,12.22,12.22,0,0,1-2.69-1.92,11.9,11.9,0,0,1-2-2.38,6,6,0,0,1-.92-2.3,26.35,26.35,0,0,1,1.84-11.37,72.65,72.65,0,0,1,6.53-13.13A115.55,115.55,0,0,1,119.3,17q5.76-6.83,12.21-13.13,1.07-1.07,3.3-.23a18,18,0,0,1,4.38,2.46,13.75,13.75,0,0,1,3.38,3.53q1.23,1.92.15,3.15-8.91,10.6-14.59,18T119.3,42.89a41.24,41.24,0,0,0-4.07,7.22q-.92,2.46-.15,3.07.15.31,3.23-2t7.14-5.68q4.07-3.37,8.29-7.06t6.68-6q7.06-9.83,13.52-17.28T164.38,5.1Z"/><path class="cls-1" d="M195.1,46q.46,2.77-1.15,7.29a61.84,61.84,0,0,1-4.53,9.68,102.57,102.57,0,0,1-6.91,10.52,99.33,99.33,0,0,1-8.22,9.75A61.39,61.39,0,0,1,166,90.5a17.23,17.23,0,0,1-7.29,3.38,11.93,11.93,0,0,1-4.22-.69,32.61,32.61,0,0,1-5.68-2.3,33.58,33.58,0,0,1-5.15-3.23q-2.3-1.76-2.61-3.3a17.52,17.52,0,0,1,.77-8,60.87,60.87,0,0,1,4.07-10.14,101.6,101.6,0,0,1,6.37-10.9A88.42,88.42,0,0,1,160,45.27a58.25,58.25,0,0,1,8.14-7.6,20.3,20.3,0,0,1,7.45-3.84,11.53,11.53,0,0,1,5.61.54,28.23,28.23,0,0,1,6.07,2.76,24.17,24.17,0,0,1,5.15,4.15A9.9,9.9,0,0,1,195.1,46Zm-9.37-5.22q-1.23-.61-4.38,2.3a77.29,77.29,0,0,0-7.14,7.83q-4,4.92-8.22,10.91t-7.53,11.44a85.51,85.51,0,0,0-5.07,9.45q-1.77,4-.69,4.76.92.77,4.07-2.23a88,88,0,0,0,7.22-8q4.07-5,8.37-11.06T180,54.64a74.86,74.86,0,0,0,5.07-9.37Q186.8,41.35,185.73,40.73Z"/><path class="cls-1" d="M241.33,0a8.71,8.71,0,0,1,3.07.38,13.87,13.87,0,0,1,4,1.69,9.92,9.92,0,0,1,2.84,2.53A2,2,0,0,1,251,7.41q-6.45,7.22-13.05,15.36T225.27,39Q219.21,47.19,214,54.71t-8.91,13.44q-3.69,5.92-5.61,9.6T198,81.9c.1.1.54,0,1.31-.31s1.51-.56,2.23-.77a3,3,0,0,1,1.54-.15q.46.16-.61,1.54a41.69,41.69,0,0,1-3,3.61,44,44,0,0,1-3.53,3.46,23.68,23.68,0,0,1-3.46,2.54,6,6,0,0,1-2.92,1,6.51,6.51,0,0,1-2.92-.77,13,13,0,0,1-2.77-1.84,9.65,9.65,0,0,1-2-2.38,4.78,4.78,0,0,1-.77-2.38q0-2.15,2.3-7t6.07-11.13q3.76-6.3,8.68-13.59T208.38,39q5.3-7.37,10.6-14.28t9.83-12.29q4.53-5.38,7.83-8.76T241.33,0Z"/><path class="cls-1" d="M261.6,46q.46,2.77-1.15,7.29a61.84,61.84,0,0,1-4.53,9.68A102.57,102.57,0,0,1,249,73.45a99.33,99.33,0,0,1-8.22,9.75,61.39,61.39,0,0,1-8.29,7.29,17.23,17.23,0,0,1-7.29,3.38,11.93,11.93,0,0,1-4.22-.69,32.61,32.61,0,0,1-5.68-2.3,33.58,33.58,0,0,1-5.15-3.23q-2.3-1.76-2.61-3.3a17.52,17.52,0,0,1,.77-8,60.87,60.87,0,0,1,4.07-10.14,101.6,101.6,0,0,1,6.37-10.9,88.42,88.42,0,0,1,7.76-10.06,58.25,58.25,0,0,1,8.14-7.6,20.3,20.3,0,0,1,7.45-3.84,11.53,11.53,0,0,1,5.61.54,28.23,28.23,0,0,1,6.07,2.76,24.17,24.17,0,0,1,5.15,4.15A9.9,9.9,0,0,1,261.6,46Zm-9.37-5.22q-1.23-.61-4.38,2.3a77.29,77.29,0,0,0-7.14,7.83q-4,4.92-8.22,10.91T225,73.22a85.51,85.51,0,0,0-5.07,9.45q-1.77,4-.69,4.76.92.77,4.07-2.23a88,88,0,0,0,7.22-8q4.07-5,8.37-11.06t7.68-11.52a74.86,74.86,0,0,0,5.07-9.37Q253.3,41.35,252.23,40.73Z"/></g><path class="cls-4" d="M231,131.49a12.22,12.22,0,0,1,4.25.61,20.89,20.89,0,0,1,5.06,2.18,8.85,8.85,0,0,1,3.37,3.32q1,1.9-.81,3.8-2.06,2.11-4.58,4.74t-5.13,4.94q-2.62,2.31-4.88,4.07a8.07,8.07,0,0,1-3.8,1.93,17.22,17.22,0,0,1-4.69-.41,19.45,19.45,0,0,1-4.65-1.61,11,11,0,0,1-3.51-2.66,5.27,5.27,0,0,1-1.27-3.78q.07-1.75,2.71-4.6a54.23,54.23,0,0,1,6-5.56,55.43,55.43,0,0,1,6.76-4.65A19.63,19.63,0,0,1,231,131.49Zm10.22-18.2a60.3,60.3,0,0,1,5.47-10.62q4.23-6.95,10.16-15.25t13.08-17.1q7.15-8.8,13.92-16.19A142.88,142.88,0,0,1,296.5,41.72q5.9-5,9.45-6a11,11,0,0,1,5,.64A44.17,44.17,0,0,1,317.65,39a21.87,21.87,0,0,1,5.13,3.28c1.27,1.15,1.52,2,.77,2.55q-3.39,2.49-9.18,7.4T301.74,63.73q-6.84,6.62-14.38,14.2T272.82,93.11q-7,7.6-13.09,14.8t-10.05,12.73a3.65,3.65,0,0,1-2.91,1.52,5,5,0,0,1-3.24-1.12,7.26,7.26,0,0,1-2.28-3.16A6.94,6.94,0,0,1,241.21,113.29Z"/><path class="cls-2" d="M169.38,7.1q1.23-.77,3.69.08a15.76,15.76,0,0,1,4.61,2.53,10.82,10.82,0,0,1,3.15,3.76,2.9,2.9,0,0,1-.54,3.61q-6.15,6.3-12.44,14T155.94,46.5q-5.61,7.76-10.21,14.9T138.2,74a45.19,45.19,0,0,0-3.76,8.52q-.85,3.07,1.15,2.61,2.92-.77,1.77.92a23.94,23.94,0,0,1-3.84,4.07,55.33,55.33,0,0,1-5.76,4.45q-3.07,2.07-4.15,2.07a8,8,0,0,1-3.46-.84,19.39,19.39,0,0,1-3.3-2,16.09,16.09,0,0,1-2.53-2.3q-1-1.15-1-1.61,0-2,1.84-6.37a109.94,109.94,0,0,1,5.07-10.21q3.23-5.84,7.45-12.67t9-13.75q-3.07,2.77-6.6,5.84t-6.68,5.76a69.86,69.86,0,0,1-5.61,4.38q-2.46,1.69-3.38,1.69a6.06,6.06,0,0,1-2.84-.77,12.13,12.13,0,0,1-2.69-1.92,12,12,0,0,1-2-2.38,6,6,0,0,1-.92-2.3,26.38,26.38,0,0,1,1.84-11.36,72.65,72.65,0,0,1,6.53-13.13A115.73,115.73,0,0,1,124.3,19q5.76-6.83,12.21-13.13,1.07-1.07,3.3-.23a18,18,0,0,1,4.38,2.46,13.71,13.71,0,0,1,3.38,3.53q1.23,1.92.15,3.15-8.91,10.6-14.59,18T124.3,44.89a41.09,41.09,0,0,0-4.07,7.22q-.92,2.46-.15,3.07.15.31,3.23-2t7.14-5.68q4.07-3.38,8.29-7.07t6.68-6q7.06-9.83,13.52-17.28T169.38,7.1Z"/><path class="cls-2" d="M200.1,48q.46,2.76-1.15,7.3a61.92,61.92,0,0,1-4.53,9.68,102.36,102.36,0,0,1-6.91,10.52,99.36,99.36,0,0,1-8.22,9.75A61.34,61.34,0,0,1,171,92.5a17.26,17.26,0,0,1-7.3,3.38,12,12,0,0,1-4.22-.69,32.72,32.72,0,0,1-5.68-2.3,33.59,33.59,0,0,1-5.15-3.23q-2.3-1.76-2.61-3.3a17.5,17.5,0,0,1,.77-8,60.88,60.88,0,0,1,4.07-10.14,101.61,101.61,0,0,1,6.37-10.9A88.44,88.44,0,0,1,165,47.27a58.26,58.26,0,0,1,8.14-7.6,20.34,20.34,0,0,1,7.45-3.84,11.56,11.56,0,0,1,5.61.54,28.26,28.26,0,0,1,6.07,2.77,24.2,24.2,0,0,1,5.15,4.15A9.92,9.92,0,0,1,200.1,48Zm-9.37-5.22q-1.23-.61-4.38,2.3a77.25,77.25,0,0,0-7.14,7.83q-4,4.92-8.22,10.9t-7.53,11.44a85.5,85.5,0,0,0-5.07,9.45q-1.77,4-.69,4.76.92.77,4.07-2.23a87.92,87.92,0,0,0,7.22-8q4.07-5,8.37-11.06T185,56.64a74.84,74.84,0,0,0,5.07-9.37Q191.8,43.35,190.73,42.74Z"/><path class="cls-2" d="M246.33,2a8.7,8.7,0,0,1,3.07.38,13.85,13.85,0,0,1,4,1.69,10,10,0,0,1,2.84,2.53A2,2,0,0,1,256,9.41q-6.45,7.22-13.05,15.36T230.28,41Q224.21,49.19,219,56.71t-8.91,13.44q-3.69,5.91-5.61,9.6T203,83.9c.1.1.54,0,1.31-.31a23.08,23.08,0,0,1,2.23-.77,2.93,2.93,0,0,1,1.54-.15c.31.1.1.61-.61,1.54a41.39,41.39,0,0,1-3,3.61,44.14,44.14,0,0,1-3.53,3.46,23.58,23.58,0,0,1-3.46,2.53,6,6,0,0,1-2.92,1,6.51,6.51,0,0,1-2.92-.77,12.93,12.93,0,0,1-2.77-1.84,9.67,9.67,0,0,1-2-2.38,4.79,4.79,0,0,1-.77-2.38q0-2.15,2.3-7t6.07-11.14q3.76-6.3,8.68-13.59T213.38,41q5.3-7.37,10.6-14.28t9.83-12.29q4.53-5.37,7.83-8.75T246.33,2Z"/><path class="cls-2" d="M266.6,48q.46,2.76-1.15,7.3a61.92,61.92,0,0,1-4.53,9.68A102.36,102.36,0,0,1,254,75.45a99.36,99.36,0,0,1-8.22,9.75,61.34,61.34,0,0,1-8.29,7.3,17.26,17.26,0,0,1-7.3,3.38,12,12,0,0,1-4.22-.69,32.72,32.72,0,0,1-5.68-2.3,33.59,33.59,0,0,1-5.15-3.23q-2.3-1.76-2.61-3.3a17.5,17.5,0,0,1,.77-8,60.88,60.88,0,0,1,4.07-10.14,101.61,101.61,0,0,1,6.37-10.9,88.44,88.44,0,0,1,7.76-10.06,58.26,58.26,0,0,1,8.14-7.6,20.34,20.34,0,0,1,7.45-3.84,11.56,11.56,0,0,1,5.61.54,28.26,28.26,0,0,1,6.07,2.77,24.2,24.2,0,0,1,5.15,4.15A9.92,9.92,0,0,1,266.6,48Zm-9.37-5.22q-1.23-.61-4.38,2.3a77.25,77.25,0,0,0-7.14,7.83q-4,4.92-8.22,10.9T230,75.22a85.5,85.5,0,0,0-5.07,9.45q-1.77,4-.69,4.76.92.77,4.07-2.23a87.92,87.92,0,0,0,7.22-8q4.07-5,8.37-11.06t7.68-11.52a74.84,74.84,0,0,0,5.07-9.37Q258.31,43.35,257.23,42.74Z"/><path class="cls-1" d="M235.38,131.63a12.19,12.19,0,0,1,4.25.61,20.92,20.92,0,0,1,5.06,2.18,8.84,8.84,0,0,1,3.37,3.31q1,1.91-.81,3.8-2.06,2.11-4.58,4.74t-5.13,4.94q-2.61,2.31-4.88,4.07a8.09,8.09,0,0,1-3.8,1.93,17.22,17.22,0,0,1-4.69-.41,19.46,19.46,0,0,1-4.65-1.61,11,11,0,0,1-3.51-2.66,5.27,5.27,0,0,1-1.27-3.78q.07-1.75,2.71-4.6a54.33,54.33,0,0,1,6-5.56,55.42,55.42,0,0,1,6.76-4.65A19.66,19.66,0,0,1,235.38,131.63Zm10.22-18.2a60.25,60.25,0,0,1,5.47-10.62q4.23-6.94,10.15-15.25t13.08-17.1q7.15-8.8,13.92-16.19a143,143,0,0,1,12.67-12.41q5.9-5,9.45-6,1.55-.37,5,.64A44.07,44.07,0,0,1,322,39.1a21.81,21.81,0,0,1,5.13,3.28c1.27,1.15,1.52,2,.77,2.55q-3.39,2.49-9.18,7.4T306.12,63.87q-6.84,6.62-14.38,14.2T277.2,93.25q-7,7.6-13.09,14.8t-10.05,12.73a3.65,3.65,0,0,1-2.91,1.52,5,5,0,0,1-3.24-1.12,7.27,7.27,0,0,1-2.28-3.16A6.94,6.94,0,0,1,245.6,113.43Z"/></g></g></svg>